<svg id="Capa_1" data-name="Capa 1" xmlns="http://www.w3.org/2000/svg" viewBox="0 0 250 50"><defs><style>.cls-1{fill:#693575;}.cls-2{fill:#ffffec;}</style></defs><path class="cls-1" d="M250,25c0,13.81-9.33,25-20.83,25H20.83C9.33,50,0,38.81,0,25S9.33,0,20.83,0H229.17C240.67,0,250,11.19,250,25Z"/><path class="cls-2" d="M90.1,26.32H85.89l-.77,2.15H83.79l3.49-9.59h1.45l3.47,9.59H90.87Zm-.36-1L88,20.43,86.25,25.3Z"/><path class="cls-2" d="M96.1,21.2a3.22,3.22,0,0,1,1.72-.44,3.57,3.57,0,0,1,1.83.48,3.41,3.41,0,0,1,1.29,1.37,4.16,4.16,0,0,1,.48,2,4.24,4.24,0,0,1-.48,2,3.43,3.43,0,0,1-1.29,1.4,3.49,3.49,0,0,1-1.83.5,3.3,3.3,0,0,1-1.71-.44A3.18,3.18,0,0,1,95,27.07v5H93.72V20.88H95v1.4A3,3,0,0,1,96.1,21.2Zm3.68,1.95a2.39,2.39,0,0,0-.93-1,2.49,2.49,0,0,0-1.29-.34,2.51,2.51,0,0,0-2.23,1.32,3.37,3.37,0,0,0,0,3,2.43,2.43,0,0,0,1,1,2.45,2.45,0,0,0,1.28.34,2.49,2.49,0,0,0,1.29-.34,2.38,2.38,0,0,0,.93-1,3.41,3.41,0,0,0,0-3Z"/><path class="cls-2" d="M105.45,21.2a3.22,3.22,0,0,1,1.72-.44,3.57,3.57,0,0,1,1.83.48,3.5,3.5,0,0,1,1.3,1.37,4.27,4.27,0,0,1,.47,2,4.35,4.35,0,0,1-.47,2,3.47,3.47,0,0,1-3.13,1.9,3.3,3.3,0,0,1-1.71-.44,3.18,3.18,0,0,1-1.13-1.08v5h-1.25V20.88h1.25v1.4A3,3,0,0,1,105.45,21.2Zm3.68,1.95a2.39,2.39,0,0,0-.93-1,2.49,2.49,0,0,0-1.29-.34,2.48,2.48,0,0,0-2.22,1.32,3.28,3.28,0,0,0,0,3,2.4,2.4,0,0,0,.94,1,2.45,2.45,0,0,0,1.28.34,2.49,2.49,0,0,0,1.29-.34,2.38,2.38,0,0,0,.93-1,3.41,3.41,0,0,0,0-3Z"/><path class="cls-2" d="M113.68,18.23V28.47h-1.25V18.23Z"/><path class="cls-2" d="M122.7,25.15h-6a2.46,2.46,0,0,0,.76,1.75,2.49,2.49,0,0,0,1.7.62,2.27,2.27,0,0,0,1.36-.38,2,2,0,0,0,.77-1h1.35a3.18,3.18,0,0,1-1.21,1.77,3.67,3.67,0,0,1-2.27.69,3.86,3.86,0,0,1-1.93-.48,3.56,3.56,0,0,1-1.34-1.38,4.33,4.33,0,0,1-.48-2.07,4.38,4.38,0,0,1,.47-2.06,3.27,3.27,0,0,1,1.32-1.36,3.93,3.93,0,0,1,2-.48,3.86,3.86,0,0,1,1.91.47,3.31,3.31,0,0,1,1.28,1.29,3.82,3.82,0,0,1,.45,1.86A7.09,7.09,0,0,1,122.7,25.15Zm-1.57-2.27a2,2,0,0,0-.87-.78,2.66,2.66,0,0,0-1.21-.28,2.35,2.35,0,0,0-1.62.61,2.46,2.46,0,0,0-.77,1.69h4.79A2.36,2.36,0,0,0,121.13,22.88Z"/><path class="cls-2" d="M137.88,18.89v9.58h-1.26V21.33l-3.18,7.14h-.89l-3.19-7.16v7.16H128.1V18.89h1.36L133,26.81l3.54-7.92Z"/><path class="cls-2" d="M146.73,20.88v7.59h-1.26V27.35a2.5,2.5,0,0,1-1,.9,3.06,3.06,0,0,1-1.42.33,3.45,3.45,0,0,1-1.59-.37,2.62,2.62,0,0,1-1.11-1.1,3.64,3.64,0,0,1-.41-1.79V20.88h1.25v4.28a2.39,2.39,0,0,0,.56,1.72,2.33,2.33,0,0,0,3.14,0,2.54,2.54,0,0,0,.58-1.81V20.88Z"/><path class="cls-2" d="M150,28.29a2.62,2.62,0,0,1-1.09-.83,2.18,2.18,0,0,1-.44-1.22h1.3a1.24,1.24,0,0,0,.53.92,2,2,0,0,0,1.25.36,1.86,1.86,0,0,0,1.14-.31,1,1,0,0,0,.41-.81.81.81,0,0,0-.44-.74,6,6,0,0,0-1.37-.47,11.23,11.23,0,0,1-1.38-.45,2.5,2.5,0,0,1-.91-.68,1.78,1.78,0,0,1-.38-1.18,1.8,1.8,0,0,1,.35-1.07,2.33,2.33,0,0,1,1-.77,3.51,3.51,0,0,1,1.45-.28,3.09,3.09,0,0,1,2,.64,2.31,2.31,0,0,1,.83,1.74H153a1.28,1.28,0,0,0-.48-.95,1.73,1.73,0,0,0-1.17-.37,1.77,1.77,0,0,0-1.08.3.88.88,0,0,0-.4.76.82.82,0,0,0,.24.61,1.88,1.88,0,0,0,.61.39,9.17,9.17,0,0,0,1,.32,12.92,12.92,0,0,1,1.33.44,2.29,2.29,0,0,1,.87.64,1.7,1.7,0,0,1,.38,1.12,1.9,1.9,0,0,1-.34,1.12,2.28,2.28,0,0,1-1,.79,3.46,3.46,0,0,1-1.44.28A3.92,3.92,0,0,1,150,28.29Z"/><path class="cls-2" d="M156.13,19.4a.79.79,0,0,1-.25-.6.85.85,0,0,1,.86-.86.77.77,0,0,1,.58.25.84.84,0,0,1,.24.61.81.81,0,0,1-.24.6.77.77,0,0,1-.58.25A.81.81,0,0,1,156.13,19.4Zm1.21,1.48v7.59h-1.26V20.88Z"/><path class="cls-2" d="M159.49,22.61a3.43,3.43,0,0,1,1.3-1.37,3.8,3.8,0,0,1,1.92-.48,3.74,3.74,0,0,1,2.3.68,3.16,3.16,0,0,1,1.2,1.88h-1.36a1.89,1.89,0,0,0-.75-1.09,2.31,2.31,0,0,0-1.39-.41,2.23,2.23,0,0,0-1.74.74,3,3,0,0,0-.67,2.1,3.06,3.06,0,0,0,.67,2.12,2.2,2.2,0,0,0,1.74.74,2.32,2.32,0,0,0,1.38-.38,1.93,1.93,0,0,0,.76-1.11h1.36A3.28,3.28,0,0,1,165,27.89a3.62,3.62,0,0,1-2.28.7,3.8,3.8,0,0,1-1.92-.48,3.43,3.43,0,0,1-1.3-1.37,4.31,4.31,0,0,1-.47-2.08A4.19,4.19,0,0,1,159.49,22.61Z"/></svg>