<svg id="Capa_1" data-name="Capa 1" xmlns="http://www.w3.org/2000/svg" viewBox="0 0 250 50"><defs><style>.cls-1{fill:#693575;}.cls-2{fill:#ffffec;}</style></defs><path class="cls-1" d="M250,25c0,13.81-9.33,25-20.83,25H20.83C9.33,50,0,38.81,0,25S9.33,0,20.83,0H229.17C240.67,0,250,11.19,250,25Z"/><path class="cls-2" d="M108,20.71a4.14,4.14,0,0,1,1.77,1.67,5.19,5.19,0,0,1,.62,2.58,5.08,5.08,0,0,1-.62,2.56A4,4,0,0,1,108,29.18a6,6,0,0,1-2.73.58h-3V20.12h3A5.85,5.85,0,0,1,108,20.71Zm.12,7a3.78,3.78,0,0,0,1-2.77,3.48,3.48,0,0,0-3.83-3.82H103.5v7.58h1.75A3.86,3.86,0,0,0,108.1,27.73Z"/><path class="cls-2" d="M118.9,26.44h-6.06a2.39,2.39,0,0,0,2.46,2.38,2.38,2.38,0,0,0,1.37-.38,2,2,0,0,0,.76-1h1.36a3.25,3.25,0,0,1-1.22,1.78,3.71,3.71,0,0,1-2.27.68,3.86,3.86,0,0,1-1.93-.48A3.4,3.4,0,0,1,112,28a4.17,4.17,0,0,1-.49-2.07,4.26,4.26,0,0,1,.48-2.06,3.27,3.27,0,0,1,1.32-1.36,4.16,4.16,0,0,1,3.86,0,3.27,3.27,0,0,1,1.28,1.3,3.82,3.82,0,0,1,.45,1.86A6.8,6.8,0,0,1,118.9,26.44Zm-1.58-2.26a2,2,0,0,0-.86-.79,2.72,2.72,0,0,0-1.21-.27,2.32,2.32,0,0,0-1.63.61,2.47,2.47,0,0,0-.76,1.68h4.78A2.23,2.23,0,0,0,117.32,24.18Z"/><path class="cls-2" d="M127.48,26.44h-6.06a2.39,2.39,0,0,0,2.46,2.38,2.35,2.35,0,0,0,1.36-.38,2.05,2.05,0,0,0,.77-1h1.36a3.31,3.31,0,0,1-1.22,1.78,3.73,3.73,0,0,1-2.27.68A3.86,3.86,0,0,1,122,29.4,3.34,3.34,0,0,1,120.62,28a4.17,4.17,0,0,1-.49-2.07,4.38,4.38,0,0,1,.47-2.06,3.39,3.39,0,0,1,1.32-1.36,3.93,3.93,0,0,1,2-.48,3.83,3.83,0,0,1,1.91.47,3.33,3.33,0,0,1,1.28,1.3,3.82,3.82,0,0,1,.45,1.86C127.52,25.92,127.5,26.17,127.48,26.44Zm-1.58-2.26a2,2,0,0,0-.86-.79,2.73,2.73,0,0,0-1.22-.27,2.32,2.32,0,0,0-1.62.61,2.48,2.48,0,0,0-.77,1.68h4.79A2.32,2.32,0,0,0,125.9,24.18Z"/><path class="cls-2" d="M130.12,28.72h3.72v1h-5.16v-1l3.68-5.52h-3.65v-1h5.1v1Z"/><path class="cls-2" d="M142.35,26.44h-6.06a2.39,2.39,0,0,0,2.46,2.38,2.35,2.35,0,0,0,1.36-.38,2.05,2.05,0,0,0,.77-1h1.36A3.31,3.31,0,0,1,141,29.2a3.73,3.73,0,0,1-2.27.68,3.86,3.86,0,0,1-1.93-.48A3.34,3.34,0,0,1,135.49,28,4.17,4.17,0,0,1,135,26a4.38,4.38,0,0,1,.47-2.06,3.39,3.39,0,0,1,1.32-1.36,3.93,3.93,0,0,1,2-.48,3.83,3.83,0,0,1,1.91.47,3.33,3.33,0,0,1,1.28,1.3,3.82,3.82,0,0,1,.45,1.86A6.8,6.8,0,0,1,142.35,26.44Zm-1.58-2.26a2,2,0,0,0-.86-.79,2.72,2.72,0,0,0-1.21-.27,2.32,2.32,0,0,0-1.63.61,2.48,2.48,0,0,0-.77,1.68h4.79A2.32,2.32,0,0,0,140.77,24.18Z"/><path class="cls-2" d="M146.26,22.4a2.92,2.92,0,0,1,1.5-.36v1.3h-.34c-1.41,0-2.11.77-2.11,2.3v4.12h-1.26V22.18h1.26v1.23A2.38,2.38,0,0,1,146.26,22.4Z"/></svg>