<svg id="Capa_1" data-name="Capa 1" xmlns="http://www.w3.org/2000/svg" viewBox="0 0 135 50"><defs><style>.cls-1{fill:#974ba6;}.cls-2{fill:#ffffec;}</style></defs><rect class="cls-1" width="135" height="50"/><path class="cls-2" d="M34.49,21.22a4.31,4.31,0,0,1,1.79,1.7,5.27,5.27,0,0,1,.62,2.61,5.19,5.19,0,0,1-.62,2.59,4.09,4.09,0,0,1-1.79,1.68,6,6,0,0,1-2.77.58h-3V20.63h3A6,6,0,0,1,34.49,21.22Zm.11,7.11a3.76,3.76,0,0,0,1-2.8,3.94,3.94,0,0,0-1-2.85,3.85,3.85,0,0,0-2.88-1H30v7.67h1.76A3.88,3.88,0,0,0,34.6,28.33Z"/><path class="cls-2" d="M38.62,21.21a.79.79,0,0,1-.25-.61.85.85,0,0,1,.83-.87h0a.82.82,0,0,1,.59.25.81.81,0,0,1,.25.62.87.87,0,0,1-.84.87A.85.85,0,0,1,38.62,21.21Zm1.23,1.5v7.67H38.58V22.71Z"/><path class="cls-2" d="M43.16,30.21a2.71,2.71,0,0,1-1.11-.84,2.23,2.23,0,0,1-.45-1.24h1.32a1.31,1.31,0,0,0,.54.94,2,2,0,0,0,1.27.36,1.77,1.77,0,0,0,1.14-.32,1,1,0,0,0,.42-.81.81.81,0,0,0-.44-.75,6.72,6.72,0,0,0-1.39-.48,9.84,9.84,0,0,1-1.39-.46,2.41,2.41,0,0,1-.93-.68,2,2,0,0,1,0-2.28,2.26,2.26,0,0,1,1-.78,3.7,3.7,0,0,1,1.47-.28,3.12,3.12,0,0,1,2.06.64A2.35,2.35,0,0,1,47.51,25H46.2a1.26,1.26,0,0,0-.49-1,1.81,1.81,0,0,0-1.18-.37,1.75,1.75,0,0,0-1.09.3.89.89,0,0,0-.41.77.81.81,0,0,0,.25.62,1.64,1.64,0,0,0,.61.39,9,9,0,0,0,1,.33,12.52,12.52,0,0,1,1.35.44,2.5,2.5,0,0,1,.89.65,1.82,1.82,0,0,1,.38,1.14,2,2,0,0,1-.35,1.13,2.28,2.28,0,0,1-1,.79,3.5,3.5,0,0,1-1.46.29A3.84,3.84,0,0,1,43.16,30.21Z"/><path class="cls-2" d="M49.33,24.46a3.34,3.34,0,0,1,1.33-1.38,3.82,3.82,0,0,1,1.93-.49,3.76,3.76,0,0,1,2.34.68,3.24,3.24,0,0,1,1.21,1.91H54.76A2,2,0,0,0,54,24.07a2.35,2.35,0,0,0-1.41-.41,2.27,2.27,0,0,0-1.76.75,3.08,3.08,0,0,0-.67,2.12,3.14,3.14,0,0,0,.67,2.15,2.27,2.27,0,0,0,1.76.75A2.38,2.38,0,0,0,54,29a2,2,0,0,0,.77-1.12h1.38A3.37,3.37,0,0,1,54.9,29.8a3.68,3.68,0,0,1-2.31.71A3.72,3.72,0,0,1,50.66,30a3.42,3.42,0,0,1-1.33-1.39,4.37,4.37,0,0,1-.47-2.1A4.25,4.25,0,0,1,49.33,24.46Z"/><path class="cls-2" d="M59.22,30a3.52,3.52,0,0,1-1.37-1.39,4.28,4.28,0,0,1-.5-2.1,4,4,0,0,1,.52-2.07,3.44,3.44,0,0,1,1.39-1.39,4.3,4.3,0,0,1,4,0,3.55,3.55,0,0,1,1.39,1.38,4.09,4.09,0,0,1,.51,2.08,4.27,4.27,0,0,1-.52,2.1A3.61,3.61,0,0,1,63.16,30a4,4,0,0,1-2,.49A3.86,3.86,0,0,1,59.22,30Zm3.24-.95a2.53,2.53,0,0,0,1-1,3.16,3.16,0,0,0,.37-1.57,3,3,0,0,0-.37-1.56,2.3,2.3,0,0,0-1-1,2.68,2.68,0,0,0-2.55,0,2.25,2.25,0,0,0-.93,1,3.13,3.13,0,0,0-.35,1.56A3.37,3.37,0,0,0,59,28.12a2.28,2.28,0,0,0,.92,1,2.53,2.53,0,0,0,1.26.31A2.66,2.66,0,0,0,62.46,29.07Z"/><path class="cls-2" d="M71.7,23a2.84,2.84,0,0,1,1.11,1.09v-1.4H74.1v7.84a3.8,3.8,0,0,1-.45,1.87,3.22,3.22,0,0,1-1.28,1.28,3.86,3.86,0,0,1-1.94.46,4.18,4.18,0,0,1-2.52-.71,2.78,2.78,0,0,1-1.19-2H68a2,2,0,0,0,.87,1.13,2.75,2.75,0,0,0,1.58.43,2.27,2.27,0,0,0,1.71-.66,2.49,2.49,0,0,0,.67-1.85V28.94a3.08,3.08,0,0,1-1.12,1.12,3.23,3.23,0,0,1-1.74.45,3.47,3.47,0,0,1-3.16-1.92,4.37,4.37,0,0,1-.48-2.07,4.22,4.22,0,0,1,.48-2.06,3.29,3.29,0,0,1,1.31-1.38A3.55,3.55,0,0,1,70,22.59,3.4,3.4,0,0,1,71.7,23Zm.76,2a2.3,2.3,0,0,0-1-1,2.56,2.56,0,0,0-1.3-.35,2.51,2.51,0,0,0-1.31.34,2.42,2.42,0,0,0-.93,1,3,3,0,0,0-.35,1.51A3,3,0,0,0,68,28.05a2.42,2.42,0,0,0,.93,1,2.51,2.51,0,0,0,1.31.34,2.46,2.46,0,0,0,1.3-.34,2.41,2.41,0,0,0,1-1,3.43,3.43,0,0,0,0-3Z"/><path class="cls-2" d="M78.49,22.94a2.93,2.93,0,0,1,1.5-.37v1.32h-.34c-1.43,0-2.14.77-2.14,2.32v4.17H76.25V22.71h1.28V24A2.36,2.36,0,0,1,78.49,22.94Z"/><path class="cls-2" d="M81.48,24.46a3.33,3.33,0,0,1,1.3-1.38,3.57,3.57,0,0,1,1.86-.49,3.34,3.34,0,0,1,1.75.43,3.05,3.05,0,0,1,1.11,1.09v-1.4h1.28v7.67H87.5V29a3,3,0,0,1-1.13,1.11,3.58,3.58,0,0,1-4.89-1.48,4.6,4.6,0,0,1,0-4.13Zm5.67.56a2.47,2.47,0,0,0-1-1,2.62,2.62,0,0,0-1.31-.35,2.46,2.46,0,0,0-1.3.34,2.51,2.51,0,0,0-.94,1,3.19,3.19,0,0,0-.35,1.51,3.24,3.24,0,0,0,.35,1.53,2.46,2.46,0,0,0,2.24,1.34,2.63,2.63,0,0,0,2.31-1.34,3.43,3.43,0,0,0,0-3Z"/><path class="cls-2" d="M94.06,23.8H92.45v6.62H91.18V23.8h-1V22.71h1v-.54a2.45,2.45,0,0,1,.66-1.89A3.23,3.23,0,0,1,94,19.69V20.8a1.75,1.75,0,0,0-1.19.33,1.55,1.55,0,0,0-.34,1.09v.54h1.61Z"/><path class="cls-2" d="M97.55,20.54l-3,1.6v-.95l3-1.75Zm-.73,2.17v7.67H95.55V22.71Z"/><path class="cls-2" d="M99,24.46a3.29,3.29,0,0,1,1.31-1.38,3.54,3.54,0,0,1,1.85-.49,3.34,3.34,0,0,1,1.75.43A2.85,2.85,0,0,1,105,24.11v-1.4h1.29v7.67H105V29a2.94,2.94,0,0,1-1.13,1.11,3.41,3.41,0,0,1-1.74.44A3.39,3.39,0,0,1,99,28.59a4.37,4.37,0,0,1-.48-2.07A4.22,4.22,0,0,1,99,24.46Zm5.67.56a2.3,2.3,0,0,0-1-1,2.56,2.56,0,0,0-1.3-.35,2.51,2.51,0,0,0-1.31.34,2.42,2.42,0,0,0-.93,1,3,3,0,0,0-.35,1.51,3,3,0,0,0,.35,1.53,2.42,2.42,0,0,0,.93,1,2.51,2.51,0,0,0,1.31.34,2.46,2.46,0,0,0,1.3-.34,2.41,2.41,0,0,0,1-1,3.43,3.43,0,0,0,0-3Z"/></svg>