<svg id="Capa_1" data-name="Capa 1" xmlns="http://www.w3.org/2000/svg" viewBox="0 0 135 50"><defs><style>.cls-1{fill:#693575;}.cls-2{fill:#ffffec;}</style></defs><rect class="cls-1" width="135" height="50" rx="13.34"/><path class="cls-2" d="M37.3,12.93v3.28h3.57v1.05H37.3v3.38h4V21.7H36V11.87h5.28v1.06Z"/><path class="cls-2" d="M44.38,21.52a2.74,2.74,0,0,1-1.12-.84,2.29,2.29,0,0,1-.45-1.25h1.33a1.27,1.27,0,0,0,.54.95,2.08,2.08,0,0,0,1.27.36,1.9,1.9,0,0,0,1.16-.32,1,1,0,0,0,.42-.82.79.79,0,0,0-.45-.75,6.13,6.13,0,0,0-1.39-.49,9.74,9.74,0,0,1-1.41-.46,2.31,2.31,0,0,1-.92-.69A1.77,1.77,0,0,1,43,16a1.85,1.85,0,0,1,.35-1.08,2.4,2.4,0,0,1,1-.78,3.46,3.46,0,0,1,1.48-.29,3.18,3.18,0,0,1,2.07.64,2.38,2.38,0,0,1,.84,1.78H47.43a1.34,1.34,0,0,0-.48-1,2.13,2.13,0,0,0-2.29-.07.9.9,0,0,0-.41.77.85.85,0,0,0,.25.63,1.83,1.83,0,0,0,.62.39,9.13,9.13,0,0,0,1,.33,10.58,10.58,0,0,1,1.35.45,2.31,2.31,0,0,1,.9.65,1.79,1.79,0,0,1,.38,1.14,1.92,1.92,0,0,1-.35,1.14,2.41,2.41,0,0,1-1,.8,3.6,3.6,0,0,1-1.47.29A4,4,0,0,1,44.38,21.52Z"/><path class="cls-2" d="M50.58,15.74a3.49,3.49,0,0,1,1.33-1.39,4.24,4.24,0,0,1,4.3.2,3.3,3.3,0,0,1,1.22,1.91H56.05a2,2,0,0,0-.77-1.11,2.38,2.38,0,0,0-1.42-.41,2.27,2.27,0,0,0-1.77.75,3.12,3.12,0,0,0-.67,2.14A3.13,3.13,0,0,0,52.09,20a2.24,2.24,0,0,0,1.77.76,2.4,2.4,0,0,0,1.41-.39,2,2,0,0,0,.78-1.13h1.38a3.38,3.38,0,0,1-1.24,1.89,3.7,3.7,0,0,1-2.33.72,3.82,3.82,0,0,1-2-.5,3.49,3.49,0,0,1-1.33-1.39,4.56,4.56,0,0,1-.47-2.11A4.44,4.44,0,0,1,50.58,15.74Z"/><path class="cls-2" d="M66,14V21.7H64.69V20.56a2.47,2.47,0,0,1-1,.92,3.17,3.17,0,0,1-1.44.33,3.45,3.45,0,0,1-1.62-.37,2.65,2.65,0,0,1-1.13-1.12,3.66,3.66,0,0,1-.42-1.82V14h1.27v4.35a2.5,2.5,0,0,0,.57,1.76,2.37,2.37,0,0,0,3.2,0,2.65,2.65,0,0,0,.59-1.85V14Z"/><path class="cls-2" d="M68.14,15.74a3.43,3.43,0,0,1,1.33-1.39,4.23,4.23,0,0,1,4.29.2A3.26,3.26,0,0,1,75,16.46H73.6a2,2,0,0,0-.76-1.11,2.41,2.41,0,0,0-1.42-.41,2.27,2.27,0,0,0-1.77.75A3.12,3.12,0,0,0,69,17.83,3.13,3.13,0,0,0,69.65,20a2.24,2.24,0,0,0,1.77.76,2.44,2.44,0,0,0,1.41-.39,2,2,0,0,0,.77-1.13H75a3.33,3.33,0,0,1-1.24,1.89,3.67,3.67,0,0,1-2.32.72,3.82,3.82,0,0,1-2-.5,3.43,3.43,0,0,1-1.33-1.39,4.44,4.44,0,0,1-.48-2.11A4.33,4.33,0,0,1,68.14,15.74Z"/><path class="cls-2" d="M82.09,14.22a2.66,2.66,0,0,1,1.11,1.12,3.84,3.84,0,0,1,.4,1.81V21.7H82.33V17.33a2.44,2.44,0,0,0-.58-1.76A2,2,0,0,0,80.18,15a2.09,2.09,0,0,0-1.61.63,2.58,2.58,0,0,0-.6,1.84V21.7H76.69V11.28H78v3.8a2.46,2.46,0,0,1,1-.91,3.5,3.5,0,0,1,3.07.05Z"/><path class="cls-2" d="M85.7,15.74A3.45,3.45,0,0,1,87,14.35a3.6,3.6,0,0,1,1.87-.49,3.45,3.45,0,0,1,1.76.43,2.93,2.93,0,0,1,1.11,1.1V14H93V21.7H91.75V20.26a3,3,0,0,1-1.13,1.12,3.39,3.39,0,0,1-1.76.45A3.46,3.46,0,0,1,87,21.32,3.53,3.53,0,0,1,85.7,19.9a4.44,4.44,0,0,1-.48-2.09A4.28,4.28,0,0,1,85.7,15.74Zm5.7.57a2.55,2.55,0,0,0-1-1A2.6,2.6,0,0,0,89.13,15a2.56,2.56,0,0,0-1.31.34,2.4,2.4,0,0,0-.94,1,3.08,3.08,0,0,0-.35,1.52,3.13,3.13,0,0,0,.35,1.54,2.46,2.46,0,0,0,.94,1,2.57,2.57,0,0,0,1.31.35,2.61,2.61,0,0,0,1.32-.35,2.48,2.48,0,0,0,1-1,3.48,3.48,0,0,0,0-3Z"/><path class="cls-2" d="M97.46,14.21A3,3,0,0,1,99,13.84v1.33h-.34c-1.44,0-2.16.78-2.16,2.33v4.2H95.21V14h1.28v1.26A2.47,2.47,0,0,1,97.46,14.21Z"/><path class="cls-2" d="M42.86,38.42a2.75,2.75,0,0,1-1.11-.85,2.25,2.25,0,0,1-.45-1.24h1.32a1.31,1.31,0,0,0,.55.94,2.06,2.06,0,0,0,1.27.37,1.81,1.81,0,0,0,1.15-.33,1,1,0,0,0,.43-.82.81.81,0,0,0-.45-.75,6.67,6.67,0,0,0-1.4-.48,10.94,10.94,0,0,1-1.4-.46,2.63,2.63,0,0,1-.93-.69,1.81,1.81,0,0,1-.38-1.21,1.79,1.79,0,0,1,.35-1.08,2.34,2.34,0,0,1,1-.78,3.62,3.62,0,0,1,1.48-.29,3.14,3.14,0,0,1,2.06.65,2.32,2.32,0,0,1,.85,1.77H45.92a1.32,1.32,0,0,0-.49-1,1.82,1.82,0,0,0-1.19-.37,1.78,1.78,0,0,0-1.09.3.9.9,0,0,0-.41.77.85.85,0,0,0,.24.63,1.79,1.79,0,0,0,.62.4c.25.09.6.2,1,.33A10.75,10.75,0,0,1,46,34.7a2.39,2.39,0,0,1,.89.65,1.78,1.78,0,0,1,.39,1.14,2,2,0,0,1-.35,1.15,2.45,2.45,0,0,1-1,.79,3.62,3.62,0,0,1-1.48.29A4,4,0,0,1,42.86,38.42Z"/><path class="cls-2" d="M56.07,35.21H49.9a2.44,2.44,0,0,0,2.51,2.43,2.4,2.4,0,0,0,1.39-.39,2,2,0,0,0,.78-1H56A3.32,3.32,0,0,1,54.72,38a3.71,3.71,0,0,1-2.31.7,3.92,3.92,0,0,1-2-.49,3.5,3.5,0,0,1-1.35-1.4,4.77,4.77,0,0,1,0-4.21,3.33,3.33,0,0,1,1.35-1.38,3.92,3.92,0,0,1,2-.49,3.85,3.85,0,0,1,1.94.48,3.3,3.3,0,0,1,1.3,1.32,3.78,3.78,0,0,1,.46,1.89A7,7,0,0,1,56.07,35.21Zm-1.61-2.3a2.06,2.06,0,0,0-.88-.8,2.78,2.78,0,0,0-1.23-.28,2.36,2.36,0,0,0-1.65.62,2.5,2.5,0,0,0-.78,1.72h4.87A2.32,2.32,0,0,0,54.46,32.91Z"/><path class="cls-2" d="M63.84,31.59a3.3,3.3,0,0,1,.87,2.46v4.54H63.45V34.23a2.51,2.51,0,0,0-.58-1.77,2.06,2.06,0,0,0-1.58-.61,2.12,2.12,0,0,0-1.61.63,2.59,2.59,0,0,0-.6,1.85v4.26H57.8V30.88h1.28V32a2.51,2.51,0,0,1,1-.92,3.45,3.45,0,0,1,3.72.53Z"/><path class="cls-2" d="M66.81,32.63a3.43,3.43,0,0,1,1.33-1.39,4.23,4.23,0,0,1,4.29.2,3.26,3.26,0,0,1,1.22,1.91H72.27a2,2,0,0,0-.76-1.11,2.41,2.41,0,0,0-1.42-.41,2.28,2.28,0,0,0-1.77.76,3.08,3.08,0,0,0-.68,2.13,3.11,3.11,0,0,0,.68,2.15,2.25,2.25,0,0,0,1.77.77,2.44,2.44,0,0,0,1.41-.4,2,2,0,0,0,.77-1.13h1.38A3.39,3.39,0,0,1,72.41,38a3.73,3.73,0,0,1-2.32.71,3.82,3.82,0,0,1-2-.49,3.45,3.45,0,0,1-1.33-1.4,4.41,4.41,0,0,1-.48-2.11A4.36,4.36,0,0,1,66.81,32.63Z"/><path class="cls-2" d="M75.4,29.37a.83.83,0,0,1-.25-.62.84.84,0,0,1,.25-.62.83.83,0,0,1,.62-.25.82.82,0,0,1,.6.25.88.88,0,0,1,.24.62.86.86,0,0,1-.24.62.82.82,0,0,1-.6.25A.83.83,0,0,1,75.4,29.37Zm1.24,1.51v7.71H75.36V30.88Z"/><path class="cls-2" d="M80.1,28.17V38.59H78.82V28.17Z"/><path class="cls-2" d="M83.56,28.17V38.59H82.28V28.17Z"/><path class="cls-2" d="M87.15,38.23a3.51,3.51,0,0,1-1.38-1.4,4.25,4.25,0,0,1-.5-2.11,4.2,4.2,0,0,1,.51-2.09,3.47,3.47,0,0,1,1.4-1.39,4.27,4.27,0,0,1,4,0,3.51,3.51,0,0,1,1.4,1.38,4.56,4.56,0,0,1,0,4.21,3.7,3.7,0,0,1-1.43,1.4,4.09,4.09,0,0,1-2,.49A3.91,3.91,0,0,1,87.15,38.23Zm3.25-1a2.47,2.47,0,0,0,1-1,3.11,3.11,0,0,0,.38-1.58,3.24,3.24,0,0,0-.37-1.58,2.34,2.34,0,0,0-1-1,2.74,2.74,0,0,0-2.57,0,2.27,2.27,0,0,0-.93,1,3.24,3.24,0,0,0-.35,1.58,3.34,3.34,0,0,0,.34,1.59,2.4,2.4,0,0,0,.92,1,2.62,2.62,0,0,0,1.27.31A2.74,2.74,0,0,0,90.4,37.27Z"/></svg>