<svg id="Capa_1" data-name="Capa 1" xmlns="http://www.w3.org/2000/svg" viewBox="0 0 135 50"><defs><style>.cls-1{fill:#693575;}.cls-2{fill:#ffffec;}</style></defs><rect class="cls-1" width="135" height="50" rx="13.34"/><path class="cls-2" d="M37.3,12.93v3.28h3.57v1.05H37.3v3.38h4V21.7H36V11.87h5.28v1.06Z"/><path class="cls-2" d="M44.38,21.52a2.74,2.74,0,0,1-1.12-.84,2.29,2.29,0,0,1-.45-1.25h1.33a1.27,1.27,0,0,0,.54.95,2.08,2.08,0,0,0,1.27.36,1.9,1.9,0,0,0,1.16-.32,1,1,0,0,0,.42-.82.79.79,0,0,0-.45-.75,6.13,6.13,0,0,0-1.39-.49,9.74,9.74,0,0,1-1.41-.46,2.31,2.31,0,0,1-.92-.69A1.77,1.77,0,0,1,43,16a1.85,1.85,0,0,1,.35-1.08,2.4,2.4,0,0,1,1-.78,3.46,3.46,0,0,1,1.48-.29,3.18,3.18,0,0,1,2.07.64,2.38,2.38,0,0,1,.84,1.78H47.43a1.34,1.34,0,0,0-.48-1,2.13,2.13,0,0,0-2.29-.07.9.9,0,0,0-.41.77.85.85,0,0,0,.25.63,1.83,1.83,0,0,0,.62.39,9.13,9.13,0,0,0,1,.33,10.58,10.58,0,0,1,1.35.45,2.31,2.31,0,0,1,.9.65,1.79,1.79,0,0,1,.38,1.14,1.92,1.92,0,0,1-.35,1.14,2.41,2.41,0,0,1-1,.8,3.6,3.6,0,0,1-1.47.29A4,4,0,0,1,44.38,21.52Z"/><path class="cls-2" d="M50.58,15.74a3.49,3.49,0,0,1,1.33-1.39,4.24,4.24,0,0,1,4.3.2,3.3,3.3,0,0,1,1.22,1.91H56.05a2,2,0,0,0-.77-1.11,2.38,2.38,0,0,0-1.42-.41,2.27,2.27,0,0,0-1.77.75,3.12,3.12,0,0,0-.67,2.14A3.13,3.13,0,0,0,52.09,20a2.24,2.24,0,0,0,1.77.76,2.4,2.4,0,0,0,1.41-.39,2,2,0,0,0,.78-1.13h1.38a3.38,3.38,0,0,1-1.24,1.89,3.7,3.7,0,0,1-2.33.72,3.82,3.82,0,0,1-2-.5,3.49,3.49,0,0,1-1.33-1.39,4.56,4.56,0,0,1-.47-2.11A4.44,4.44,0,0,1,50.58,15.74Z"/><path class="cls-2" d="M66,14V21.7H64.69V20.56a2.47,2.47,0,0,1-1,.92,3.17,3.17,0,0,1-1.44.33,3.45,3.45,0,0,1-1.62-.37,2.65,2.65,0,0,1-1.13-1.12,3.66,3.66,0,0,1-.42-1.82V14h1.27v4.35a2.5,2.5,0,0,0,.57,1.76,2.37,2.37,0,0,0,3.2,0,2.65,2.65,0,0,0,.59-1.85V14Z"/><path class="cls-2" d="M68.14,15.74a3.43,3.43,0,0,1,1.33-1.39,4.23,4.23,0,0,1,4.29.2A3.26,3.26,0,0,1,75,16.46H73.6a2,2,0,0,0-.76-1.11,2.41,2.41,0,0,0-1.42-.41,2.27,2.27,0,0,0-1.77.75A3.12,3.12,0,0,0,69,17.83,3.13,3.13,0,0,0,69.65,20a2.24,2.24,0,0,0,1.77.76,2.44,2.44,0,0,0,1.41-.39,2,2,0,0,0,.77-1.13H75a3.33,3.33,0,0,1-1.24,1.89,3.67,3.67,0,0,1-2.32.72,3.82,3.82,0,0,1-2-.5,3.43,3.43,0,0,1-1.33-1.39,4.44,4.44,0,0,1-.48-2.11A4.33,4.33,0,0,1,68.14,15.74Z"/><path class="cls-2" d="M82.09,14.22a2.66,2.66,0,0,1,1.11,1.12,3.84,3.84,0,0,1,.4,1.81V21.7H82.33V17.33a2.44,2.44,0,0,0-.58-1.76A2,2,0,0,0,80.18,15a2.09,2.09,0,0,0-1.61.63,2.58,2.58,0,0,0-.6,1.84V21.7H76.69V11.28H78v3.8a2.46,2.46,0,0,1,1-.91,3.5,3.5,0,0,1,3.07.05Z"/><path class="cls-2" d="M85.7,15.74A3.45,3.45,0,0,1,87,14.35a3.6,3.6,0,0,1,1.87-.49,3.45,3.45,0,0,1,1.76.43,2.93,2.93,0,0,1,1.11,1.1V14H93V21.7H91.75V20.26a3,3,0,0,1-1.13,1.12,3.39,3.39,0,0,1-1.76.45A3.46,3.46,0,0,1,87,21.32,3.53,3.53,0,0,1,85.7,19.9a4.44,4.44,0,0,1-.48-2.09A4.28,4.28,0,0,1,85.7,15.74Zm5.7.57a2.55,2.55,0,0,0-1-1A2.6,2.6,0,0,0,89.13,15a2.56,2.56,0,0,0-1.31.34,2.4,2.4,0,0,0-.94,1,3.08,3.08,0,0,0-.35,1.52,3.13,3.13,0,0,0,.35,1.54,2.46,2.46,0,0,0,.94,1,2.57,2.57,0,0,0,1.31.35,2.61,2.61,0,0,0,1.32-.35,2.48,2.48,0,0,0,1-1,3.48,3.48,0,0,0,0-3Z"/><path class="cls-2" d="M97.46,14.21A3,3,0,0,1,99,13.84v1.33h-.34c-1.44,0-2.16.78-2.16,2.33v4.2H95.21V14h1.28v1.26A2.47,2.47,0,0,1,97.46,14.21Z"/><path class="cls-2" d="M45.23,32.63a3.47,3.47,0,0,1,1.32-1.39,3.6,3.6,0,0,1,1.87-.49,3.46,3.46,0,0,1,1.76.44,2.93,2.93,0,0,1,1.11,1.1V30.88h1.29v7.71H51.29V37.16a3,3,0,0,1-1.14,1.12,3.42,3.42,0,0,1-1.75.44,3.51,3.51,0,0,1-1.86-.51,3.6,3.6,0,0,1-1.31-1.42,4.52,4.52,0,0,1-.47-2.08A4.46,4.46,0,0,1,45.23,32.63Zm5.71.57a2.52,2.52,0,0,0-.95-1,2.61,2.61,0,0,0-1.32-.35,2.66,2.66,0,0,0-1.31.34,2.43,2.43,0,0,0-.94,1,3,3,0,0,0-.35,1.52,3.15,3.15,0,0,0,.35,1.54,2.46,2.46,0,0,0,.94,1,2.56,2.56,0,0,0,1.31.34A2.6,2.6,0,0,0,50,37.25a2.48,2.48,0,0,0,.95-1,3.26,3.26,0,0,0,.35-1.53A3.19,3.19,0,0,0,50.94,33.2Zm-.65-4.51-3,1.61v-1l3-1.76Z"/><path class="cls-2" d="M56,28.17V38.59H54.75V28.17Z"/><path class="cls-2" d="M60.65,31.19a3.42,3.42,0,0,1,1.73-.44,3.55,3.55,0,0,1,1.87.49,3.45,3.45,0,0,1,1.31,1.39A4.34,4.34,0,0,1,66,34.71a4.4,4.4,0,0,1-.48,2.08,3.5,3.5,0,0,1-3.18,1.93,3.45,3.45,0,0,1-1.75-.44,2.94,2.94,0,0,1-1.13-1.11v1.42H58.21V28.17H59.5v4.14A3,3,0,0,1,60.65,31.19Zm3.73,2a2.39,2.39,0,0,0-.95-1,2.7,2.7,0,0,0-1.32-.34,2.59,2.59,0,0,0-1.3.35,2.5,2.5,0,0,0-1,1,3.06,3.06,0,0,0-.35,1.51,3.14,3.14,0,0,0,.35,1.53,2.5,2.5,0,0,0,1,1,2.69,2.69,0,0,0,2.62,0,2.42,2.42,0,0,0,.95-1,3.27,3.27,0,0,0,.35-1.54A3.16,3.16,0,0,0,64.38,33.19Z"/><path class="cls-2" d="M74.57,30.88v7.71H73.29V37.45a2.4,2.4,0,0,1-1,.92,3.14,3.14,0,0,1-1.44.33,3.45,3.45,0,0,1-1.62-.37,2.65,2.65,0,0,1-1.13-1.12,3.62,3.62,0,0,1-.42-1.81V30.88h1.27v4.35A2.43,2.43,0,0,0,69.51,37a2,2,0,0,0,1.57.61A2.1,2.1,0,0,0,72.7,37a2.59,2.59,0,0,0,.59-1.85V30.88Z"/><path class="cls-2" d="M87.62,31.11a2.75,2.75,0,0,1,1.12,1.12,3.77,3.77,0,0,1,.41,1.82v4.54H87.88V34.23a2.51,2.51,0,0,0-.57-1.77,2,2,0,0,0-1.54-.61,2,2,0,0,0-1.59.64,2.61,2.61,0,0,0-.6,1.85v4.25H82.32V34.23a2.51,2.51,0,0,0-.57-1.77,2,2,0,0,0-1.55-.61,2.07,2.07,0,0,0-1.59.64A2.65,2.65,0,0,0,78,34.34v4.25H76.74V30.88H78V32a2.68,2.68,0,0,1,1-.93,3.06,3.06,0,0,1,1.42-.32,3.35,3.35,0,0,1,1.72.43,2.74,2.74,0,0,1,1.11,1.28,2.49,2.49,0,0,1,1.07-1.26A3.13,3.13,0,0,1,86,30.74,3.34,3.34,0,0,1,87.62,31.11Z"/></svg>