<svg id="Capa_1" data-name="Capa 1" xmlns="http://www.w3.org/2000/svg" viewBox="0 0 135 50"><defs><style>.cls-1{fill:#ffffec;}.cls-2{fill:#693575;}</style></defs><rect class="cls-1" width="135" height="50" rx="13.34"/><path class="cls-2" d="M27.66,21.68V25h3.56v1H27.66v3.36h4v1H26.39V20.63h5.25v1.05Z"/><path class="cls-2" d="M34.71,30.23a2.55,2.55,0,0,1-1.11-.84,2.23,2.23,0,0,1-.45-1.24h1.32a1.28,1.28,0,0,0,.54.94,2,2,0,0,0,1.26.36,1.81,1.81,0,0,0,1.15-.32,1,1,0,0,0,.42-.81.8.8,0,0,0-.45-.75A6.13,6.13,0,0,0,36,27.08a11.41,11.41,0,0,1-1.4-.45,2.4,2.4,0,0,1-.92-.69,1.94,1.94,0,0,1,0-2.27,2.41,2.41,0,0,1,1-.78,3.85,3.85,0,0,1,1.47-.29,3.19,3.19,0,0,1,2.06.65A2.38,2.38,0,0,1,39,25H37.74a1.32,1.32,0,0,0-.48-1A2.1,2.1,0,0,0,35,23.92a.89.89,0,0,0-.41.77.84.84,0,0,0,.24.62,1.91,1.91,0,0,0,.62.39,9,9,0,0,0,1,.33,13.11,13.11,0,0,1,1.34.44,2.5,2.5,0,0,1,.89.65,1.77,1.77,0,0,1,.39,1.14,2,2,0,0,1-.35,1.13,2.34,2.34,0,0,1-1,.79,3.5,3.5,0,0,1-1.46.29A3.69,3.69,0,0,1,34.71,30.23Z"/><path class="cls-2" d="M40.86,24.47a3.5,3.5,0,0,1,1.32-1.38,3.86,3.86,0,0,1,1.94-.49,3.8,3.8,0,0,1,2.33.69,3.24,3.24,0,0,1,1.21,1.9H46.31a2,2,0,0,0-.76-1.1,2.45,2.45,0,0,0-1.41-.41,2.27,2.27,0,0,0-1.76.75,3.08,3.08,0,0,0-.67,2.12,3.1,3.1,0,0,0,.67,2.14,2.2,2.2,0,0,0,1.76.76,2.33,2.33,0,0,0,1.4-.39A2,2,0,0,0,46.31,28h1.37a3.34,3.34,0,0,1-1.23,1.88,3.68,3.68,0,0,1-2.31.71,3.86,3.86,0,0,1-1.94-.49,3.45,3.45,0,0,1-1.34-1.44,4.38,4.38,0,0,1-.48-2.1A4.32,4.32,0,0,1,40.86,24.47Z"/><path class="cls-2" d="M56.18,22.73V30.4H54.91V29.27a2.37,2.37,0,0,1-1,.91,3,3,0,0,1-1.43.33,3.27,3.27,0,0,1-1.62-.37A2.69,2.69,0,0,1,49.72,29a3.65,3.65,0,0,1-.41-1.81V22.73h1.26v4.32a2.45,2.45,0,0,0,.57,1.75,2.34,2.34,0,0,0,3.18,0A2.57,2.57,0,0,0,54.91,27V22.73Zm-2-2.17-3,1.6v-1l3-1.75Z"/><path class="cls-2" d="M58.34,24.47a3.5,3.5,0,0,1,1.32-1.38,3.86,3.86,0,0,1,1.94-.49,3.8,3.8,0,0,1,2.33.69,3.34,3.34,0,0,1,1.21,1.9H63.77a2,2,0,0,0-.76-1.1,2.45,2.45,0,0,0-1.41-.41,2.25,2.25,0,0,0-1.76.75,3.09,3.09,0,0,0-.68,2.12,3.12,3.12,0,0,0,.7,2.14,2.2,2.2,0,0,0,1.76.76,2.33,2.33,0,0,0,1.4-.39A2,2,0,0,0,63.77,28h1.37a3.34,3.34,0,0,1-1.23,1.88,3.68,3.68,0,0,1-2.31.71,3.86,3.86,0,0,1-1.94-.49,3.4,3.4,0,0,1-1.32-1.39,4.38,4.38,0,0,1-.48-2.1A4.27,4.27,0,0,1,58.34,24.47Z"/><path class="cls-2" d="M72.21,23a2.73,2.73,0,0,1,1.1,1.11,3.8,3.8,0,0,1,.4,1.81v4.52H72.45V26.06a2.51,2.51,0,0,0-.59-1.76,2.14,2.14,0,0,0-1.57-.6,2.19,2.19,0,0,0-1.61.62,2.68,2.68,0,0,0-.59,1.84V30.4H66.86V20h1.27v3.78a2.65,2.65,0,0,1,1-.91,3.63,3.63,0,0,1,1.49-.32A3.41,3.41,0,0,1,72.21,23Z"/><path class="cls-2" d="M75.8,24.47a3.52,3.52,0,0,1,1.3-1.38A3.8,3.8,0,0,1,79,22.6a3.45,3.45,0,0,1,1.75.44,2.87,2.87,0,0,1,1.15,1.09v-1.4h1.29V30.4H81.86V29a2.94,2.94,0,0,1-1.12,1.12,3.53,3.53,0,0,1-4.82-1.35.54.54,0,0,1-.07-.13,4.37,4.37,0,0,1-.48-2.07A4.21,4.21,0,0,1,75.8,24.47Zm5.67.57a2.53,2.53,0,0,0-1-1,2.72,2.72,0,0,0-1.31-.34,2.55,2.55,0,0,0-1.3.34,2.51,2.51,0,0,0-.94,1,3.48,3.48,0,0,0,0,3,2.49,2.49,0,0,0,2.24,1.35,2.67,2.67,0,0,0,2.31-1.35,3.14,3.14,0,0,0,.39-1.53A3.23,3.23,0,0,0,81.47,25Z"/><path class="cls-2" d="M91.27,23.44a3.3,3.3,0,0,1,.86,2.44V30.4H90.86V26.06a2.52,2.52,0,0,0-.57-1.76,2.1,2.1,0,0,0-1.57-.6,2.15,2.15,0,0,0-1.6.62,2.64,2.64,0,0,0-.6,1.84V30.4H85.26V22.73h1.27v1.09a2.65,2.65,0,0,1,1-.91A3.4,3.4,0,0,1,89,22.59,3.15,3.15,0,0,1,91.27,23.44Z"/><path class="cls-2" d="M95.61,30a3.42,3.42,0,0,1-1.37-1.4,4.33,4.33,0,0,1-.5-2.09,4.11,4.11,0,0,1,.51-2.08,3.51,3.51,0,0,1,1.4-1.38,4.33,4.33,0,0,1,4,0A3.61,3.61,0,0,1,101,24.47a4.46,4.46,0,0,1,0,4.17A3.61,3.61,0,0,1,99.62,30a4.11,4.11,0,0,1-2,.49A3.91,3.91,0,0,1,95.61,30Zm3.25-.95a2.47,2.47,0,0,0,1-1,3.43,3.43,0,0,0,0-3.1,2.41,2.41,0,0,0-1-1,2.8,2.8,0,0,0-1.27-.31,2.69,2.69,0,0,0-1.28.31,2.38,2.38,0,0,0-.94,1,3.84,3.84,0,0,0,0,3.15,2.28,2.28,0,0,0,.92,1,2.38,2.38,0,0,0,1.25.32A2.68,2.68,0,0,0,98.86,29.09Z"/><path class="cls-2" d="M104.31,30.23a2.58,2.58,0,0,1-1.1-.84,2.23,2.23,0,0,1-.45-1.24h1.31a1.31,1.31,0,0,0,.54.94,2,2,0,0,0,1.27.36,1.81,1.81,0,0,0,1.15-.32,1,1,0,0,0,.42-.81.8.8,0,0,0-.45-.75,6.21,6.21,0,0,0-1.39-.49,11.26,11.26,0,0,1-1.39-.45,2.31,2.31,0,0,1-.92-.69,1.76,1.76,0,0,1-.39-1.19,1.85,1.85,0,0,1,.35-1.08,2.48,2.48,0,0,1,1-.78,3.85,3.85,0,0,1,1.47-.29,3.14,3.14,0,0,1,2,.65,2.33,2.33,0,0,1,.85,1.76H107.3a1.35,1.35,0,0,0-.48-1,1.81,1.81,0,0,0-1.18-.37,1.85,1.85,0,0,0-1.1.3.89.89,0,0,0-.4.77.84.84,0,0,0,.24.62,1.91,1.91,0,0,0,.62.39,9,9,0,0,0,1,.33,13.11,13.11,0,0,1,1.34.44,2.5,2.5,0,0,1,.89.65,1.69,1.69,0,0,1,.38,1.14,2,2,0,0,1-.34,1.13,2.42,2.42,0,0,1-1,.79,3.54,3.54,0,0,1-1.47.29A4,4,0,0,1,104.31,30.23Z"/></svg>