<svg xmlns="http://www.w3.org/2000/svg" id="a" viewBox="0 0 100 100"><defs><style>.b{fill:#ffffec}.c{fill:#974ba6}</style></defs><g><path d="M99.02,50c0,24.47-17.93,44.75-41.36,48.43-2.49,.39-5.05,.59-7.66,.59s-5.17-.2-7.66-.59C18.9,94.76,.98,74.47,.98,50,.98,22.93,22.92,.98,50,.98s49.02,21.95,49.02,49.02Z" class="c"/><path d="M50,100c-2.65,0-5.28-.2-7.81-.6C17.74,95.57,0,74.79,0,50,0,22.43,22.43,0,50,0s50,22.43,50,50c0,24.79-17.74,45.56-42.19,49.4-2.53,.4-5.16,.6-7.81,.6ZM50,1.96C23.51,1.96,1.96,23.51,1.96,50c0,23.82,17.05,43.78,40.53,47.46,4.86,.77,10.15,.77,15.01,0,23.49-3.69,40.53-23.65,40.53-47.46C98.04,23.51,76.49,1.96,50,1.96Z" class="b"/></g><path d="M69.08,64.17l2.17-14.17h-13.6v-9.2c0-3.88,1.9-7.66,7.99-7.66h6.18v-12.06s-5.61-.96-10.97-.96c-11.2,0-18.52,6.79-18.52,19.07v10.8h-12.45v14.17h12.45v34.25c2.5,.39,5.05,.6,7.66,.6s5.16-.2,7.66-.6v-34.25h11.42Z" class="b"/></svg>