<svg xmlns="http://www.w3.org/2000/svg" id="a" viewBox="0 0 100 100"><defs><style>.b{fill:#ffffec}.c{fill:#974ba6}</style></defs><g><circle cx="50" cy="50" r="49.02" class="c"/><path d="M50,100C22.43,100,0,77.57,0,50S22.43,0,50,0s50,22.43,50,50-22.43,50-50,50ZM50,1.96C23.51,1.96,1.96,23.51,1.96,50s21.55,48.04,48.04,48.04,48.04-21.55,48.04-48.04S76.49,1.96,50,1.96Z" class="b"/></g><g><path d="M65.22,31.46c-1.86,0-3.37,1.51-3.37,3.37s1.51,3.37,3.37,3.37,3.37-1.51,3.37-3.37-1.51-3.37-3.37-3.37Z" class="b"/><path d="M50.24,35.78c-7.8,0-14.15,6.35-14.15,14.15s6.35,14.15,14.15,14.15,14.15-6.35,14.15-14.15-6.35-14.15-14.15-14.15Zm0,23.22c-5,0-9.07-4.07-9.07-9.07s4.07-9.07,9.07-9.07,9.07,4.07,9.07,9.07-4.07,9.07-9.07,9.07Z" class="b"/><path d="M61.47,78.67h-22.95c-9.52,0-17.26-7.74-17.26-17.26v-22.95c0-9.52,7.74-17.26,17.26-17.26h22.95c9.52,0,17.26,7.74,17.26,17.26v22.95c0,9.52-7.75,17.26-17.26,17.26ZM38.53,26.6c-6.54,0-11.86,5.32-11.86,11.86v22.95c0,6.54,5.32,11.86,11.86,11.86h22.95c6.54,0,11.86-5.32,11.86-11.86v-22.95c0-6.54-5.32-11.86-11.86-11.86h-22.95Z" class="b"/></g></svg>