<svg xmlns="http://www.w3.org/2000/svg" id="Capa_1" data-name="Capa 1" viewBox="0 0 202 66"><defs><style>.cls-1{fill:#ffffec}</style></defs><path d="M56.28,30.31a.5.5,0,0,1,.33-.46,1.47,1.47,0,0,1,.59,0h.43a8,8,0,0,1-.09,1.39c-.09.54-.09,1.13-.13,1.76s-.07,1.27-.09,2a16.52,16.52,0,0,0,0,2,13.14,13.14,0,0,0,.26,1.87,6.29,6.29,0,0,0,.52,1.57,1.17,1.17,0,0,0,.15.27.57.57,0,0,0,.16.15.46.46,0,0,0,.19.08h.29a4.58,4.58,0,0,0,1.61,0c.5-.12,1-.26,1.53-.41s1-.3,1.55-.41A4.72,4.72,0,0,1,65.17,40h.45a4.37,4.37,0,0,1,.5.09.89.89,0,0,1,.38.23.53.53,0,0,1,.11.47c0,.18-.23.36-.62.54a10.67,10.67,0,0,1-1.44.5c-.58.15-1.2.3-1.87.42s-1.32.26-1.93.35-1.16.16-1.63.2a4.71,4.71,0,0,1-.92,0A1.75,1.75,0,0,1,57,42.21a3.84,3.84,0,0,1-.75-1.3,9,9,0,0,1-.41-1.83c-.08-.71-.13-1.41-.14-2.12s0-1.44,0-2.15.09-1.37.16-2,.13-1.14.19-1.6S56.25,30.49,56.28,30.31Z" class="cls-1"/><path d="M31.17,51a.39.39,0,0,1,.32-.38,1.94,1.94,0,0,1,.59,0h.42a9,9,0,0,1-.06,1.2c-.06.47-.06,1-.09,1.52s0,1.1-.06,1.69a14.05,14.05,0,0,0,.08,1.72,12.63,12.63,0,0,0,.29,1.63,4.85,4.85,0,0,0,.57,1.37,1,1,0,0,0,.15.24.4.4,0,0,0,.16.13.48.48,0,0,0,.2.07,1.4,1.4,0,0,0,.29,0,5,5,0,0,0,1.55,0,14.45,14.45,0,0,0,1.53-.33,14.26,14.26,0,0,1,1.53-.32,5,5,0,0,1,1.59,0h.45a1.69,1.69,0,0,1,.5.08.81.81,0,0,1,.39.2.43.43,0,0,1,.11.4c0,.16-.22.32-.6.46a8.85,8.85,0,0,1-1.42.41c-.58.13-1.2.25-1.87.36s-1.31.2-1.92.27-1.15.12-1.61.15a7.06,7.06,0,0,1-.92,0,2,2,0,0,1-1.18-.53,3.41,3.41,0,0,1-.77-1.17A6.7,6.7,0,0,1,31,58.5a14.15,14.15,0,0,1-.18-1.84V54.8a15,15,0,0,1,.12-1.71c.06-.53.1-1,.16-1.39S31.15,51.13,31.17,51Z" class="cls-1"/><path d="M0,52.59a1.71,1.71,0,0,1,.65-1.13A3.84,3.84,0,0,1,2,50.87a6.57,6.57,0,0,1,1.59-.18,10.55,10.55,0,0,1,1.49.07,4.73,4.73,0,0,1,2.07.67,3.65,3.65,0,0,1,1.22,1.31,4.2,4.2,0,0,1,.52,1.72,7.41,7.41,0,0,1-.05,1.94,8.81,8.81,0,0,1-.38,1.49,13.45,13.45,0,0,1-.73,1.75,18.84,18.84,0,0,1-1,1.75,8.92,8.92,0,0,1-1.31,1.5,5.49,5.49,0,0,1-1.52,1,3.37,3.37,0,0,1-1.72.25c-.12,0-.23-.17-.35-.46a12,12,0,0,1-.38-1.18A13.5,13.5,0,0,1,1,60.84c-.11-.65-.24-1.28-.35-2s-.22-1.29-.3-2S.21,55.58.15,55,0,53.94,0,53.52A4.82,4.82,0,0,1,0,52.59Zm1.5,1.15A10.2,10.2,0,0,0,1.42,55a12.21,12.21,0,0,0,.06,1.48A13.49,13.49,0,0,0,1.72,58a9.74,9.74,0,0,0,.43,1.49,6.67,6.67,0,0,0,.66,1.34,3.55,3.55,0,0,0,.93,1c.52-.49,1-.94,1.36-1.33a8.16,8.16,0,0,0,1-1.2,5.8,5.8,0,0,0,.66-1.46,9.45,9.45,0,0,0,.4-1.67,9.79,9.79,0,0,0,.11-1.32A3.24,3.24,0,0,0,7,53.63a2.24,2.24,0,0,0-.78-.94,3.07,3.07,0,0,0-1.49-.49,5.67,5.67,0,0,0-1.54,0,8.4,8.4,0,0,0-1.49.4v.2l-.06.33-.06.34C1.54,53.62,1.53,53.69,1.52,53.74Z" class="cls-1"/><path d="M124.79,50.06a1.48,1.48,0,0,1,.63-1,3.62,3.62,0,0,1,1.26-.54,6.61,6.61,0,0,1,1.54-.17,14.09,14.09,0,0,1,1.45.08,4.62,4.62,0,0,1,2,.64,3.53,3.53,0,0,1,1.21,1.22,4.06,4.06,0,0,1,.52,1.62,6.78,6.78,0,0,1,0,1.8A8.35,8.35,0,0,1,133,55.1a11.69,11.69,0,0,1-.71,1.62,14.22,14.22,0,0,1-1,1.63,7.86,7.86,0,0,1-1.25,1.39,5.15,5.15,0,0,1-1.49.94,3.24,3.24,0,0,1-1.66.23c-.12,0-.23-.16-.35-.44a8.13,8.13,0,0,1-.38-1.08c-.13-.46-.26-1-.39-1.57s-.24-1.19-.35-1.82-.2-1.26-.29-1.9-.16-1.2-.23-1.74a13.69,13.69,0,0,1-.12-1.4A3.87,3.87,0,0,1,124.79,50.06Zm1.44,1.07a7.68,7.68,0,0,0-.09,1.17,10.62,10.62,0,0,0,.06,1.38,12.06,12.06,0,0,0,.25,1.44,9.88,9.88,0,0,0,.44,1.4,6,6,0,0,0,.65,1.2,3.35,3.35,0,0,0,.9.9c.51-.46.95-.87,1.33-1.24a7.47,7.47,0,0,0,1-1.1A5.36,5.36,0,0,0,131.4,55a7.11,7.11,0,0,0,.38-1.56,7.89,7.89,0,0,0,.1-1.28,2.54,2.54,0,0,0-.25-1.15,2.15,2.15,0,0,0-.75-.86,3.35,3.35,0,0,0-1.47-.47,5.31,5.31,0,0,0-1.49,0,9.16,9.16,0,0,0-1.46.36v.19a.56.56,0,0,1-.06.3,1.61,1.61,0,0,1,0,.31Z" class="cls-1"/><path d="M151.28,49.41a1.51,1.51,0,0,1,.63-1,3.55,3.55,0,0,1,1.25-.53,6.75,6.75,0,0,1,1.55-.16,10.06,10.06,0,0,1,1.45.07,4.84,4.84,0,0,1,2,.63,3.65,3.65,0,0,1,1.21,1.23,4.23,4.23,0,0,1,.52,1.61,7.74,7.74,0,0,1,0,1.8,7.5,7.5,0,0,1-.37,1.39A10.72,10.72,0,0,1,158.8,56a11.77,11.77,0,0,1-1,1.62,8.33,8.33,0,0,1-1.31,1.41A5.55,5.55,0,0,1,155,60a3.24,3.24,0,0,1-1.66.23c-.12,0-.24-.15-.36-.43a10,10,0,0,1-.37-1.09c-.13-.45-.26-1-.39-1.57s-.24-1.19-.34-1.82-.21-1.26-.3-1.88-.16-1.22-.23-1.75-.11-1-.13-1.39A4.25,4.25,0,0,1,151.28,49.41Zm1.44,1.08a7.46,7.46,0,0,0-.09,1.16,11.61,11.61,0,0,0,.31,2.82,9.36,9.36,0,0,0,.44,1.39,5,5,0,0,0,.65,1.2,3,3,0,0,0,.9.9c.51-.45.95-.87,1.33-1.23a8.09,8.09,0,0,0,1-1.11,5.49,5.49,0,0,0,.63-1.23,7.72,7.72,0,0,0,.38-1.56,7.8,7.8,0,0,0,.1-1.28,2.5,2.5,0,0,0-.25-1.14,2,2,0,0,0-.76-.88,3.14,3.14,0,0,0-1.46-.46,5.31,5.31,0,0,0-1.49,0,9.16,9.16,0,0,0-1.46.36v.19l-.06.31c0,.11,0,.21,0,.32A.9.9,0,0,0,152.72,50.49Z" class="cls-1"/><path d="M11.85,51.48H11.6l-.33-.07L11,51.3l-.2-.07v-.06a.08.08,0,0,1,0-.07.42.42,0,0,1,.16-.33,1.76,1.76,0,0,1,.42-.24,2.6,2.6,0,0,1,.47-.16l.37-.07h1.37l1.31.08,1.42.07,1.28.08,1,.06h.81l.43.09.41.17a.66.66,0,0,1,.28.24,2.07,2.07,0,0,1-.22.35.52.52,0,0,1-.21.18.49.49,0,0,1-.24.08h-6v.75c0,.34-.06.69-.07,1.06a6.67,6.67,0,0,0,.08,1.09,2.05,2.05,0,0,0,.42.91,2.73,2.73,0,0,1,1.21-.35,9.29,9.29,0,0,0,1.29-.06h.72a4,4,0,0,1,.85.06,1.83,1.83,0,0,1,.71.25.66.66,0,0,1,.31.57.57.57,0,0,1-.11.42,1.06,1.06,0,0,1-.62.17h-.21l-.47-.1-.33-.09a.67.67,0,0,0-.2,0h-.9a4.76,4.76,0,0,0-.75.07,1.66,1.66,0,0,0-.62.19.89.89,0,0,0-.41.36,1.12,1.12,0,0,0-.13.62c0,.15,0,.29.05.43a3.14,3.14,0,0,0,.13.67c.06.25.11.49.19.75a4.23,4.23,0,0,0,.3.69,2.15,2.15,0,0,0,.41.53.67.67,0,0,0,.52.2h.33c.36-.23.73-.47,1.11-.74s.77-.51,1.17-.73a7.55,7.55,0,0,1,1.25-.6,4.15,4.15,0,0,1,1.39-.28v.68a2.55,2.55,0,0,1-.32.32c-.21.17-.48.37-.82.6l-1.14.75c-.42.26-.85.51-1.28.73s-.81.4-1.23.57a3.34,3.34,0,0,1-1,.24,1.48,1.48,0,0,1-1-.39,4.09,4.09,0,0,1-.81-1.2,8.47,8.47,0,0,1-.66-1.59c-.18-.6-.35-1.23-.49-1.87s-.28-1.28-.38-1.92-.19-1.23-.26-1.76-.12-1-.16-1.42S11.87,51.64,11.85,51.48Z" class="cls-1"/><path d="M112,50.77h-.25l-.33-.06-.32-.07-.21-.06h0v-.06a.33.33,0,0,1,.17-.29,1.41,1.41,0,0,1,.42-.22,2.75,2.75,0,0,1,.47-.13,2.29,2.29,0,0,1,.36-.07h1.38l1.31.06,1.42.06,1.29.06h1.81a2.17,2.17,0,0,1,.43.08,2,2,0,0,1,.41.14.71.71,0,0,1,.27.21,1.6,1.6,0,0,1-.22.31.62.62,0,0,1-.21.15.34.34,0,0,1-.24.06h-6a3.53,3.53,0,0,1,0,.65c0,.31-.07.61-.08.92a4.22,4.22,0,0,0,.08,1,1.55,1.55,0,0,0,.41.78,3.72,3.72,0,0,1,1.22-.31h2a6,6,0,0,1,.85,0,2.18,2.18,0,0,1,.71.22.57.57,0,0,1,.31.5.47.47,0,0,1-.12.36,1,1,0,0,1-.61.14h-.22l-.34-.07-.33-.07h-1.19a3,3,0,0,0-.73.06,1.91,1.91,0,0,0-.62.17.88.88,0,0,0-.42.32.85.85,0,0,0-.13.54,2.28,2.28,0,0,0,0,.37,2.78,2.78,0,0,0,.12.57,4.84,4.84,0,0,0,.19.65,2.31,2.31,0,0,0,.3.61,2,2,0,0,0,.4.46.74.74,0,0,0,.52.17h.33c.36-.2.74-.41,1.11-.64s.77-.45,1.17-.65a11.58,11.58,0,0,1,1.26-.53,5.47,5.47,0,0,1,1.39-.24v.59a2.22,2.22,0,0,1-.32.27c-.21.15-.49.33-.83.54s-.73.42-1.15.65-.84.44-1.28.63a10.92,10.92,0,0,1-1.23.5,3.38,3.38,0,0,1-1,.22,1.52,1.52,0,0,1-1-.34,3.55,3.55,0,0,1-.84-.93,6.52,6.52,0,0,1-.65-1.39c-.18-.52-.34-1-.48-1.61s-.27-1.11-.37-1.67-.18-1.06-.25-1.53S112,52,112,51.62,112,50.87,112,50.77Z" class="cls-1"/><path d="M97,39.91a7.48,7.48,0,0,1,.26-1.56,11.55,11.55,0,0,1,.65-1.69,10.76,10.76,0,0,1,1-1.66,7.56,7.56,0,0,1,1.24-1.41,5.53,5.53,0,0,1,1.49-1,3.8,3.8,0,0,1,1.66-.34,5.13,5.13,0,0,1,1.34.21,2.91,2.91,0,0,1,1.05.57,2.42,2.42,0,0,1,.68.91,3,3,0,0,1,.22,1.29,1.25,1.25,0,0,1-.79-.26,4.85,4.85,0,0,1-.55-.56,3.62,3.62,0,0,0-.54-.49,1.36,1.36,0,0,0-.77-.25,2.81,2.81,0,0,0-1.34.31,4.62,4.62,0,0,0-1.21.89,6.83,6.83,0,0,0-1,1.27,14.06,14.06,0,0,0-.76,1.44A8.9,8.9,0,0,0,99.08,39a5.38,5.38,0,0,0-.2,1.2,6,6,0,0,0,.28,2.07,5,5,0,0,0,1,1.7,4.44,4.44,0,0,0,1.52,1.16,5.37,5.37,0,0,0,2.17.45,4.69,4.69,0,0,0,1.49-.19q.72-.21,1.38-.45c.44-.17.89-.32,1.32-.47a3.67,3.67,0,0,1,1.31-.21h.25a1.8,1.8,0,0,1,.32.06.64.64,0,0,1,.25.15.35.35,0,0,1,.1.28,1.67,1.67,0,0,1-.65,1.28,5.13,5.13,0,0,1-1.5.83,9,9,0,0,1-1.77.44,10.81,10.81,0,0,1-1.5.11,9.46,9.46,0,0,1-3.17-.53,7.9,7.9,0,0,1-2.53-1.53A6.77,6.77,0,0,1,97.5,43,7.18,7.18,0,0,1,97,39.91Z" class="cls-1"/><path d="M110.92,37.07V35.41a.94.94,0,0,1,.52-.38,3.39,3.39,0,0,1,.77-.15,5.47,5.47,0,0,1,.81,0h1.41a5.32,5.32,0,0,1,.88.12,5.59,5.59,0,0,1,.87.23,2.6,2.6,0,0,1,.75.36,1.55,1.55,0,0,1,.52.53,1.12,1.12,0,0,1,.18.71,1.59,1.59,0,0,1-.29.87,3.62,3.62,0,0,1-.69.72,7.74,7.74,0,0,1-.88.62c-.32.18-.61.37-.88.55a4.5,4.5,0,0,0-.68.56,1,1,0,0,0-.29.64v.07a.06.06,0,0,1,0,.06,28.87,28.87,0,0,1,3.39,1.17c1.1.45,2.18.93,3.23,1.46,0,0,.06,0,.1.09l.09.17a1.42,1.42,0,0,0,.08.18.29.29,0,0,1,0,.13.23.23,0,0,1-.08.17.51.51,0,0,1-.18.09h-.39a4.32,4.32,0,0,1-1.59-.34c-.52-.21-1-.45-1.58-.71s-1.07-.5-1.61-.72a5.05,5.05,0,0,0-1.71-.34h-.48l.4.85a6.46,6.46,0,0,1,.28.73,4.35,4.35,0,0,1,.18.71,3.22,3.22,0,0,1,0,.76v.21a1,1,0,0,1,0,.25A.39.39,0,0,1,114,46a.44.44,0,0,1-.25.14,3.17,3.17,0,0,1-1.06-1,6.89,6.89,0,0,1-.8-1.49,12.61,12.61,0,0,1-.55-1.78c-.15-.63-.26-1.25-.35-1.86s-.14-1.13-.17-1.7A6.81,6.81,0,0,0,110.92,37.07Zm1.26.84a3.09,3.09,0,0,1,0,.43,4.86,4.86,0,0,0,0,.54,1.82,1.82,0,0,0,.08.52,1,1,0,0,0,.27.44h.11a1.89,1.89,0,0,0,.66-.13,5.11,5.11,0,0,0,.8-.35,7.23,7.23,0,0,0,.84-.51,7.51,7.51,0,0,0,.76-.61,3.66,3.66,0,0,0,.55-.63,1.25,1.25,0,0,0,.22-.6.6.6,0,0,0-.21-.45,1.86,1.86,0,0,0-.53-.3,4.32,4.32,0,0,0-1.19-.25h-.6a3.75,3.75,0,0,0-.67,0,1.81,1.81,0,0,0-.61.14.69.69,0,0,0-.38.33,1.22,1.22,0,0,0,0,.27v.84c0,.13-.1.26-.1.33Z" class="cls-1"/><path d="M154.77,34.23V32.56a1,1,0,0,1,.52-.38,5,5,0,0,1,.77-.15,5.48,5.48,0,0,1,.81,0h1.41a5.29,5.29,0,0,1,.88.11,6.42,6.42,0,0,1,.86.23,3.45,3.45,0,0,1,.75.36,1.91,1.91,0,0,1,.53.53,1.12,1.12,0,0,1,.18.71,1.46,1.46,0,0,1-.3.88,4.09,4.09,0,0,1-.67.71,7.86,7.86,0,0,1-.89.62c-.32.18-.62.37-.88.55a4.75,4.75,0,0,0-.69.57,1,1,0,0,0-.28.64.09.09,0,0,0,0,.07v.06a30.61,30.61,0,0,1,3.38,1.16c1.09.45,2.18.94,3.23,1.46a.28.28,0,0,1,.09.1.56.56,0,0,1,.09.17l.09.17a.29.29,0,0,1,0,.13.18.18,0,0,1-.08.17.51.51,0,0,1-.18.09H164a4.61,4.61,0,0,1-1.59-.33c-.53-.22-1.06-.45-1.59-.71a15.48,15.48,0,0,0-1.61-.72,4.79,4.79,0,0,0-1.71-.35H157l.4.86c.11.25.21.49.29.73a3.38,3.38,0,0,1,.16.7,3.24,3.24,0,0,1,.05.76v.21a1,1,0,0,1,0,.25.33.33,0,0,1-.1.23.31.31,0,0,1-.23.14,3,3,0,0,1-1.07-1,7.43,7.43,0,0,1-.8-1.5,12.65,12.65,0,0,1-.56-1.78,18.19,18.19,0,0,1-.33-1.86c-.08-.61-.15-1.16-.18-1.69A9,9,0,0,1,154.77,34.23Zm1.25.84a3.09,3.09,0,0,1,0,.43,4.86,4.86,0,0,0,0,.54,1.88,1.88,0,0,0,.08.52,1,1,0,0,0,.26.44h.13a1.82,1.82,0,0,0,.65-.12,5.27,5.27,0,0,0,.8-.36,6.59,6.59,0,0,0,.85-.51,6.26,6.26,0,0,0,.76-.6,4.22,4.22,0,0,0,.55-.64,1.28,1.28,0,0,0,.22-.6.66.66,0,0,0-.21-.45,2.54,2.54,0,0,0-.53-.31,4.77,4.77,0,0,0-.65-.17,3.33,3.33,0,0,0-.54-.07h-.6a3.75,3.75,0,0,0-.67,0,1.61,1.61,0,0,0-.61.15.64.64,0,0,0-.39.33v1.1A1.21,1.21,0,0,1,156,35.07Z" class="cls-1"/><path d="M122.6,36.92a3.79,3.79,0,0,0,.07-.82,3.55,3.55,0,0,1,.08-.73.9.9,0,0,1,.3-.48,1.15,1.15,0,0,1,.77-.11,5.53,5.53,0,0,1,.16,1.07c0,.47.06,1,.07,1.61s0,1.27,0,2,0,1.42-.07,2.14-.07,1.4-.12,2.09-.1,1.31-.15,1.86c-.36.18-.63.16-.8,0a2.06,2.06,0,0,1-.34-1,11.5,11.5,0,0,1,0-1.66c0-.65.06-1.32.1-2s.06-1.39.07-2.06A12.4,12.4,0,0,0,122.6,36.92Z" class="cls-1"/><path d="M106.38,53.1a7.74,7.74,0,0,0,.07-.83,3,3,0,0,1,.07-.73,1,1,0,0,1,.31-.48,1.11,1.11,0,0,1,.76-.1,5.45,5.45,0,0,1,.17,1.06c0,.47,0,1,0,1.62v2c0,.73,0,1.41-.06,2.13s-.09,1.39-.09,2.08-.1,1.31-.15,1.87c-.36.18-.63.16-.8,0a2,2,0,0,1-.34-1,9.11,9.11,0,0,1-.06-1.65c0-.65.06-1.33.11-2s.06-1.38.07-2.06A15,15,0,0,0,106.38,53.1Z" class="cls-1"/><path d="M167.27,33.93a5.75,5.75,0,0,0,0-.83,4.33,4.33,0,0,1,0-.72.86.86,0,0,1,.18-.44,1.11,1.11,0,0,1,.75-.18,5.45,5.45,0,0,1,.29,1.05c.09.46.18,1,.26,1.59s.16,1.27.22,2,.13,1.42.19,2.13.1,1.41.13,2.1.06,1.31.07,1.86c-.33.21-.6.22-.79,0a2,2,0,0,1-.47-1,10.11,10.11,0,0,1-.25-1.65c0-.64-.1-1.31-.14-2s-.1-1.38-.17-2.05A14.78,14.78,0,0,0,167.27,33.93Z" class="cls-1"/><path d="M70.35,28.25a.45.45,0,0,1,.25-.37,1.85,1.85,0,0,1,.41-.07,1.25,1.25,0,0,1,.85.48,7.61,7.61,0,0,1,1,1.34A20.42,20.42,0,0,1,74,31.56c.37.74.74,1.5,1.09,2.27s.68,1.57,1,2.35.6,1.49.84,2.15.43,1.21.57,1.69a6.9,6.9,0,0,1,.23,1,1.21,1.21,0,0,1-.09.53.43.43,0,0,1-.4.27.55.55,0,0,1-.33-.11,1.48,1.48,0,0,1-.25-.31c-.07-.12-.14-.24-.2-.36l-.17-.32c0-.09-.15-.36-.31-.7l-.45-1.1-.47-1c-.15-.33-.26-.57-.32-.72l-2.24-.28c-.75-.08-1.54-.16-2.37-.23h-.18c-.26,1.78-.49,3.18-.71,4.22a20.45,20.45,0,0,1-.57,2.21c-.17.44-.31.63-.43.56s-.2-.33-.27-.77a13.34,13.34,0,0,1-.11-1.79,21.93,21.93,0,0,1,.1-2.49c.1-.91.17-1.86.29-2.85a28.12,28.12,0,0,1,.49-2.89,23.31,23.31,0,0,1,.73-2.6A8,8,0,0,1,70.35,28.25Zm0,6a1.15,1.15,0,0,0,.44.91,2,2,0,0,0,.94.34,7.1,7.1,0,0,0,1.13,0l1-.07a5.75,5.75,0,0,0-.26-1.48A10.7,10.7,0,0,0,73,32.4c-.24-.52-.49-1-.76-1.5l-.75-1.29a2.2,2.2,0,0,0-.33.71c-.11.33-.21.71-.32,1.13s-.19.84-.27,1.24-.13.72-.17,1v.25c0,.11,0,.22,0,.32Z" class="cls-1"/><path d="M43.65,48.14a.37.37,0,0,1,.22-.35,1.44,1.44,0,0,1,.4-.13,1.32,1.32,0,0,1,.91.3,7.67,7.67,0,0,1,1.2,1q.66.67,1.38,1.56a21.57,21.57,0,0,1,1.42,1.85c.43.65.93,1.28,1.36,1.91s.83,1.24,1.17,1.78.6,1,.81,1.42a5.28,5.28,0,0,1,.38.84,1,1,0,0,1-.06.53.4.4,0,0,1-.36.29.46.46,0,0,1-.34,0,1,1,0,0,1-.29-.24l-.25-.29-.21-.26L51,57.73c-.2-.29-.42-.58-.64-.89L49.69,56l-.43-.59L47,55.46c-.75,0-1.53.08-2.36.14h-.17c0,1.6,0,2.87-.06,3.82a15,15,0,0,1-.22,2c-.1.41-.21.59-.33.55s-.26-.26-.39-.64a12.28,12.28,0,0,1-.36-1.48c-.11-.65-.21-1.39-.28-2.2s-.12-1.66-.16-2.56a22.73,22.73,0,0,1,0-2.61A17.56,17.56,0,0,1,43,50.08,7,7,0,0,1,43.65,48.14Zm1,5.29a1,1,0,0,0,.58.73,2,2,0,0,0,1,.16,7,7,0,0,0,1.12-.15l1-.21a5,5,0,0,0-.53-1.23,11.77,11.77,0,0,0-1-1.28c-.33-.41-.66-.81-1-1.19s-.66-.74-.94-1a1.59,1.59,0,0,0-.21.67c-.06.31-.1.66-.14,1s-.06.76-.07,1.13,0,.66,0,.89v.23c0,.12.09.17.1.21Z" class="cls-1"/><path d="M70.48,49.61c.06-.23.14-.36.26-.4a2,2,0,0,1,.42-.07,1.27,1.27,0,0,1,.84.53,9.43,9.43,0,0,1,1,1.44,20.83,20.83,0,0,1,1,2.1c.33.79.66,1.6,1,2.45s.66,1.68,1,2.52.57,1.6.8,2.3.41,1.32.54,1.84a6.22,6.22,0,0,1,.21,1.06,1.54,1.54,0,0,1-.1.56.42.42,0,0,1-.4.28.46.46,0,0,1-.33-.13,1.37,1.37,0,0,1-.25-.33c-.07-.13-.13-.26-.19-.39L76.1,63a3.57,3.57,0,0,0-.3-.75c-.15-.37-.3-.76-.46-1.17L74.89,60c-.15-.36-.25-.61-.31-.77l-2.23-.33c-.75-.1-1.54-.2-2.37-.29H69.8c-.28,1.88-.55,3.38-.78,4.48a20.1,20.1,0,0,1-.62,2.34c-.18.47-.32.67-.44.59s-.2-.35-.26-.82a15.41,15.41,0,0,1-.07-1.92c0-.79.06-1.68.14-2.65s.21-2,.35-3,.32-2.08.54-3.08a22.7,22.7,0,0,1,.78-2.76A9.08,9.08,0,0,1,70.48,49.61ZM70.4,56a1.21,1.21,0,0,0,.43,1,1.73,1.73,0,0,0,.94.38,5.24,5.24,0,0,0,1.12,0h1a6.39,6.39,0,0,0-.28-1.56,12.81,12.81,0,0,0-.6-1.67c-.24-.54-.49-1.07-.74-1.59s-.5-1-.72-1.41a2.67,2.67,0,0,0-.34.75c-.11.36-.23.77-.34,1.22s-.21.87-.29,1.3l-.19,1V56Z" class="cls-1"/><path d="M140.8,48.49a.42.42,0,0,1,.26-.3,3,3,0,0,1,.42-.06,1.31,1.31,0,0,1,.83.4,6.38,6.38,0,0,1,1,1.09,17.47,17.47,0,0,1,1,1.58c.35.6.69,1.22,1,1.86s.64,1.27.93,1.9.55,1.23.77,1.75.39,1,.52,1.39a3.68,3.68,0,0,1,.19.81.72.72,0,0,1-.1.43.45.45,0,0,1-.41.22.6.6,0,0,1-.32-.1,1,1,0,0,1-.25-.25l-.18-.29c-.06-.1-.11-.19-.16-.26l-.28-.58-.45-.88-.45-.86c-.14-.28-.24-.47-.29-.59l-2.23-.23-2.37-.21h-.16c-.32,1.44-.6,2.58-.85,3.42a12.76,12.76,0,0,1-.65,1.79c-.17.36-.32.51-.43.45s-.2-.26-.26-.63a10,10,0,0,1-.05-1.45c0-.67.09-1.33.18-2s.22-1.5.37-2.31a21,21,0,0,1,.58-2.34,15.83,15.83,0,0,1,.81-2.11A7.22,7.22,0,0,1,140.8,48.49Zm-.15,4.88a.81.81,0,0,0,.41.73,2.19,2.19,0,0,0,.93.28,7.1,7.1,0,0,0,1.13,0h1a3.73,3.73,0,0,0-.26-1.19,8.93,8.93,0,0,0-.58-1.26c-.23-.42-.47-.82-.73-1.2l-.7-1.07a1.75,1.75,0,0,0-.35.57c-.12.28-.24.59-.35.92s-.22.68-.31,1-.16.59-.2.79v.22C140.64,53.23,140.65,53.3,140.65,53.37Z" class="cls-1"/><path d="M128.35,33.82a.39.39,0,0,1,.24-.29,2,2,0,0,1,.42-.07,1.32,1.32,0,0,1,.84.37,6.75,6.75,0,0,1,1,1c.38.48.73,1,1.06,1.49s.69,1.16,1,1.77.67,1.2,1,1.81.56,1.16.79,1.67.42,1,.55,1.31a3.46,3.46,0,0,1,.21.78.75.75,0,0,1-.09.41.45.45,0,0,1-.41.21.56.56,0,0,1-.33-.08,1.79,1.79,0,0,1-.25-.23l-.18-.29-.16-.24-.3-.55-.47-.83-.46-.83c-.14-.26-.25-.44-.31-.55l-2.23-.19-2.36-.15h-.17c-.29,1.39-.55,2.48-.79,3.29a9.88,9.88,0,0,1-.61,1.73c-.17.34-.31.49-.43.44s-.2-.25-.26-.6a9.43,9.43,0,0,1-.06-1.3c0-.65.06-1.29.14-1.93s.19-1.46.33-2.24a19.34,19.34,0,0,1,.53-2.25,15.45,15.45,0,0,1,.77-2A6.14,6.14,0,0,1,128.35,33.82Zm-.06,4.68a.78.78,0,0,0,.42.7,2.18,2.18,0,0,0,.93.24,7.23,7.23,0,0,0,1.14,0l1-.07a3.69,3.69,0,0,0-.28-1.12,8.4,8.4,0,0,0-.6-1.2c-.24-.4-.49-.77-.76-1.15l-.72-1a1.87,1.87,0,0,0-.34.56l-.33.89c-.11.33-.21.65-.29,1s-.14.58-.18.77v.21A.5.5,0,0,0,128.29,38.5Z" class="cls-1"/><path d="M187,31a.39.39,0,0,1,.24-.29,1.52,1.52,0,0,1,.42-.06,1.24,1.24,0,0,1,.84.36,6.75,6.75,0,0,1,1,1c.35.44.69.94,1.06,1.5a15.31,15.31,0,0,1,1,1.76c.29.61.67,1.2,1,1.81s.56,1.16.79,1.67.41,1,.55,1.31a3.46,3.46,0,0,1,.21.78.75.75,0,0,1-.09.41.45.45,0,0,1-.41.21.56.56,0,0,1-.33-.08,1.31,1.31,0,0,1-.24-.23l-.19-.29-.16-.24-.3-.54c-.15-.27-.31-.55-.47-.85l-.46-.81c-.15-.26-.25-.45-.31-.56l-2.23-.19-2.36-.15h-.13c-.28,1.39-.54,2.49-.78,3.29a10.78,10.78,0,0,1-.61,1.73c-.17.35-.31.49-.43.44s-.2-.25-.26-.6a8,8,0,0,1-.07-1.39,17.19,17.19,0,0,1,.12-1.93c.08-.71.2-1.46.34-2.24a19.34,19.34,0,0,1,.53-2.25,15.45,15.45,0,0,1,.77-2A6.24,6.24,0,0,1,187,31Zm-.06,4.68a.75.75,0,0,0,.42.69,2.07,2.07,0,0,0,.93.26,7.23,7.23,0,0,0,1.14,0l1-.07a3.69,3.69,0,0,0-.28-1.12,8.4,8.4,0,0,0-.6-1.2c-.24-.4-.49-.78-.76-1.15l-.72-1a1.64,1.64,0,0,0-.34.55c-.11.27-.23.57-.34.89s-.19.65-.28,1-.14.57-.18.76v.21a.55.55,0,0,0,0,.18Z" class="cls-1"/><path d="M81,41.45a1.13,1.13,0,0,1,.41-.67,5,5,0,0,1,.76-.47c.28-.14.58-.27.89-.4a7.34,7.34,0,0,0,.86-.39,2.62,2.62,0,0,0,.65-.5,1.15,1.15,0,0,0,.27-.72,1.53,1.53,0,0,0-.23-.91,2.51,2.51,0,0,0-.67-.63,4.23,4.23,0,0,0-1-.44l-1.1-.39q-.57-.2-1.11-.42a4.27,4.27,0,0,1-1-.58,2.47,2.47,0,0,1-.67-.8A2.36,2.36,0,0,1,78.85,33a2.53,2.53,0,0,1,.29-1.05,3.91,3.91,0,0,1,.6-1,4.89,4.89,0,0,1,.84-.8,5.61,5.61,0,0,1,1-.61,5.23,5.23,0,0,1,1-.37,3.76,3.76,0,0,1,1-.13h.17a3,3,0,0,1,.37.17l.45.25a2.71,2.71,0,0,1,.37.21c.11.06.16.1.16.11v.4a5.23,5.23,0,0,0-.78.11,4.45,4.45,0,0,0-1,.22,7.84,7.84,0,0,0-1.07.35,5.83,5.83,0,0,0-1,.52,2.74,2.74,0,0,0-.71.69,1.55,1.55,0,0,0-.3.91,1.44,1.44,0,0,0,.5,1.24,3.76,3.76,0,0,0,1.16.72,13.94,13.94,0,0,0,1.54.52A10.45,10.45,0,0,1,85,36a3.49,3.49,0,0,1,1.17.8,1.78,1.78,0,0,1,.43,1.31,2.22,2.22,0,0,1-.27.93,5.16,5.16,0,0,1-.68.93,7.83,7.83,0,0,1-.94.88,9.73,9.73,0,0,1-1,.72,10,10,0,0,1-1.05.49,2.36,2.36,0,0,1-.91.16.62.62,0,0,1-.27,0,.49.49,0,0,1-.23-.11.39.39,0,0,1-.15-.23A.54.54,0,0,1,81,41.45Z" class="cls-1"/><path d="M196.47,42.13a1.11,1.11,0,0,1,.43-.65,3.64,3.64,0,0,1,.75-.47,9.1,9.1,0,0,1,.9-.4c.31-.13.58-.26.85-.4a2.16,2.16,0,0,0,.65-.51,1,1,0,0,0,.28-.71,1.47,1.47,0,0,0-.24-.91,2.15,2.15,0,0,0-.68-.63,4.43,4.43,0,0,0-1-.45l-1.07-.37-1.12-.41a4.21,4.21,0,0,1-1-.56,2.61,2.61,0,0,1-.68-.8,2.28,2.28,0,0,1-.22-1.15,2.73,2.73,0,0,1,.24-1.05,4.41,4.41,0,0,1,.6-.94,5.37,5.37,0,0,1,.84-.81,5.92,5.92,0,0,1,2-1,3.69,3.69,0,0,1,1-.13h.18a2.12,2.12,0,0,1,.37.18l.45.24c.15.07.27.15.38.21l.15.1v.41a4.79,4.79,0,0,0-.78.11c-.32.06-.65.13-1,.22a10.51,10.51,0,0,0-1.08.36,5.59,5.59,0,0,0-1,.52,3.14,3.14,0,0,0-.72.69,1.6,1.6,0,0,0-.28.9,1.42,1.42,0,0,0,.41,1.19,3.76,3.76,0,0,0,1.16.72,15.66,15.66,0,0,0,1.55.52,10.83,10.83,0,0,1,1.54.54,3.62,3.62,0,0,1,1.16.81,1.81,1.81,0,0,1,.43,1.32,2.08,2.08,0,0,1-.26.91,4.9,4.9,0,0,1-.68.94,7.83,7.83,0,0,1-.94.88,6.33,6.33,0,0,1-1.06.71,6.58,6.58,0,0,1-1,.49,2.58,2.58,0,0,1-.91.17.62.62,0,0,1-.27,0,.58.58,0,0,1-.24-.11.49.49,0,0,1-.15-.24A.61.61,0,0,1,196.47,42.13Z" class="cls-1"/><path d="M95.32,60.7a1.07,1.07,0,0,1,.42-.62,5.08,5.08,0,0,1,.75-.44l.89-.36a9.28,9.28,0,0,0,.86-.37,2.51,2.51,0,0,0,.65-.47,1,1,0,0,0,.27-.66,1.29,1.29,0,0,0-.23-.85,2.52,2.52,0,0,0-.68-.58,4.61,4.61,0,0,0-1-.42l-1.12-.35c-.37-.12-.75-.25-1.11-.39a3.81,3.81,0,0,1-1-.52,2.58,2.58,0,0,1-.68-.75,2.09,2.09,0,0,1-.19-1.05,2.63,2.63,0,0,1,.25-1A4.37,4.37,0,0,1,94,51a6,6,0,0,1,.85-.74,6.15,6.15,0,0,1,1-.57,6.84,6.84,0,0,1,1-.35,3.74,3.74,0,0,1,1-.11H98l.38.17.45.23.37.19.15.11v.37a2.38,2.38,0,0,0-.77.1c-.32.1-.65.12-1,.21a8.2,8.2,0,0,0-1.07.32,4.53,4.53,0,0,0-1,.48,2.57,2.57,0,0,0-.71.64,1.44,1.44,0,0,0-.3.85A1.29,1.29,0,0,0,95,54a3.86,3.86,0,0,0,1.16.67,14.4,14.4,0,0,0,1.54.48,13.88,13.88,0,0,1,1.54.51,3.47,3.47,0,0,1,1.17.76,1.62,1.62,0,0,1,.44,1.22,1.86,1.86,0,0,1-.28.86,4.38,4.38,0,0,1-.67.87,7.13,7.13,0,0,1-.93.8,8,8,0,0,1-1,.71,6,6,0,0,1-1,.45,2.81,2.81,0,0,1-.9.17h-.26a.71.71,0,0,1-.25-.11.44.44,0,0,1-.11-.58Z" class="cls-1"/><path d="M37.12,30.07a.36.36,0,0,1,.07-.25.61.61,0,0,1,.13-.22.44.44,0,0,1,.22-.14.55.55,0,0,1,.36,0h.19a3,3,0,0,1,.35,1c.06.39.12.8.16,1.24s.1.89.17,1.34a4,4,0,0,0,.39,1.25,2.86,2.86,0,0,0,.83,1,3.18,3.18,0,0,0,1.46.56.56.56,0,0,0,.62-.23,3.21,3.21,0,0,0,.36-.83c.1-.35.19-.74.28-1.17A7.22,7.22,0,0,1,43,32.43a2.84,2.84,0,0,1,.52-.95,1.32,1.32,0,0,1,.93-.42,3.3,3.3,0,0,1,.09,1.17A14.91,14.91,0,0,1,44.32,34c-.12.65-.29,1.36-.49,2.12s-.43,1.5-.68,2.24-.5,1.43-.78,2.11-.55,1.25-.81,1.74a5.78,5.78,0,0,1-.74,1.15c-.24.26-.45.36-.61.28a1.64,1.64,0,0,1-.38-.82,2.75,2.75,0,0,1,0-1,5.3,5.3,0,0,1,.23-1.12c.12-.39.23-.78.37-1.17s.27-.75.42-1.12.25-.71.34-1a3.47,3.47,0,0,1-1.3-.37,4.75,4.75,0,0,1-1.15-.83,6.85,6.85,0,0,1-1-1.21,6.1,6.1,0,0,1-.84-3.15A5.65,5.65,0,0,1,37.12,30.07Z" class="cls-1"/><path d="M138.62,33.49a.4.4,0,0,0-.2-.29.67.67,0,0,0-.34-.09,1.15,1.15,0,0,0-.37,0h-.27l-.8-.08-1.24-.09-1.23-.14-.81-.09v-.16a.48.48,0,0,1,0-.17,1.34,1.34,0,0,1,0-.4.36.36,0,0,1,.27-.26c.85,0,1.7.06,2.54,0s1.67,0,2.51-.08l2.51-.11h2.53a1.26,1.26,0,0,1-.27.87,1.23,1.23,0,0,1-.61.36,2.77,2.77,0,0,1-.81.06,6,6,0,0,0-.85,0,2,2,0,0,0-.72.16.76.76,0,0,0-.41.53v1.86a8.08,8.08,0,0,0,.14,1.77c.11.58.24,1.16.38,1.74s.28,1.14.39,1.72a7.27,7.27,0,0,1,.15,1.74.59.59,0,0,1-.52.66h-.16c-.26,0-.48-.23-.68-.65a8.3,8.3,0,0,1-.49-1.61,19.48,19.48,0,0,1-.3-2.13c-.08-.77-.13-1.51-.17-2.21s-.07-1.32-.07-1.86A9.56,9.56,0,0,0,138.62,33.49Z" class="cls-1"/><path d="M176.11,33.93a.46.46,0,0,0-.24-.29,1,1,0,0,0-.35-.06h-.36a.62.62,0,0,1-.27,0h-4.12a.43.43,0,0,0,0-.16v-.16a2.67,2.67,0,0,1,0-.4.36.36,0,0,1,.24-.28,23.33,23.33,0,0,0,2.53-.2c.83-.09,1.67-.2,2.49-.32l2.48-.35c.83-.11,1.67-.2,2.52-.26a1.37,1.37,0,0,1-.16.89,1.19,1.19,0,0,1-.58.41,2.67,2.67,0,0,1-.88.19,6,6,0,0,0-.84.08,1.88,1.88,0,0,0-.69.23.73.73,0,0,0-.35.56v1.86a8.15,8.15,0,0,0,.37,1.75c.19.57.39,1.14.6,1.7s.42,1.11.6,1.67a7.8,7.8,0,0,1,.37,1.71.55.55,0,0,1-.41.69.37.37,0,0,1-.18,0c-.27,0-.51-.17-.76-.58a7.41,7.41,0,0,1-.69-1.55c-.21-.64-.41-1.34-.58-2.09s-.31-1.49-.44-2.18-.23-1.31-.31-1.84A4.55,4.55,0,0,1,176.11,33.93Z" class="cls-1"/><path d="M144.58,34.64V33a2.35,2.35,0,0,1,.24-.37.75.75,0,0,1,.28-.25.44.44,0,0,1,.32,0,.75.75,0,0,1,.34.32V33a1.2,1.2,0,0,1-.07.37,3.57,3.57,0,0,0-.11.63c0,.23-.09.44-.12.64a2.25,2.25,0,0,0-.06.36,4.69,4.69,0,0,0,0,.75,6.58,6.58,0,0,0,.13,1,9.76,9.76,0,0,0,.23,1,5.52,5.52,0,0,0,.34.88,2.71,2.71,0,0,0,.47.64.83.83,0,0,0,.62.27,1.15,1.15,0,0,0,.79-.25,2.41,2.41,0,0,0,.6-.67,4.44,4.44,0,0,0,.43-1,8,8,0,0,0,.28-1.07,9,9,0,0,0,.17-1c0-.33.06-.63.07-.88a4.33,4.33,0,0,0,0-.72,3.63,3.63,0,0,0-.1-.66q-.06-.33-.09-.66a3.53,3.53,0,0,1,0-.65.48.48,0,0,1,.2-.42.71.71,0,0,1,.42-.12.55.55,0,0,1,.46.21,1.22,1.22,0,0,1,.27.5,3.82,3.82,0,0,1,.12.69v2c0,.4-.05.81-.1,1.21a13,13,0,0,1-.28,1.38,14.38,14.38,0,0,1-.47,1.4A5.76,5.76,0,0,1,149.3,40a3.43,3.43,0,0,1-.85.85,1.88,1.88,0,0,1-2.15,0,2.81,2.81,0,0,1-.77-1,5.79,5.79,0,0,1-.5-1.27,8.87,8.87,0,0,1-.3-1.43c-.06-.46-.1-.92-.12-1.37A6.32,6.32,0,0,1,144.58,34.64Z" class="cls-1"/><path d="M80.07,63.36c0-.19-.09-.48-.15-.85a7,7,0,0,1-.17-1.22,12.41,12.41,0,0,0-.2-1.4c-.06-.48-.12-1-.17-1.42s-.1-.89-.12-1.28a8.17,8.17,0,0,1,0-1,5.61,5.61,0,0,1,0-.58,5.42,5.42,0,0,1,.12-.85c.05-.3.1-.57.15-.83a3.3,3.3,0,0,1,.13-.52.25.25,0,0,1,.17,0h.71a3.26,3.26,0,0,1,1.5.37,7,7,0,0,1,1.35.92,12.88,12.88,0,0,1,1.22,1.23c.4.45.8.89,1.21,1.31a12.55,12.55,0,0,0,1.25,1.17,4.73,4.73,0,0,0,1.35.8V57.81a17.17,17.17,0,0,0-.06-2.27c-.07-.74-.15-1.48-.24-2.21s-.16-1.49-.23-2.24a19.57,19.57,0,0,1-.07-2.3h.29l.36.06a1.26,1.26,0,0,1,.33.16.48.48,0,0,1,.19.31A21.69,21.69,0,0,0,89.22,52c.13.9.26,1.78.4,2.68s.26,1.8.36,2.69A19.44,19.44,0,0,1,90.1,60v.52a3.08,3.08,0,0,1-.08.53,1.2,1.2,0,0,1-.2.41.53.53,0,0,1-.41.16,3.1,3.1,0,0,1-1.59-.47A7.84,7.84,0,0,1,86.43,60a17.9,17.9,0,0,1-1.31-1.44,16.33,16.33,0,0,0-1.3-1.46A8.41,8.41,0,0,0,82.41,56a2.93,2.93,0,0,0-1.57-.48,13.25,13.25,0,0,0,.08,2c.07.64.15,1.28.23,1.91s.17,1.25.23,1.87a12,12,0,0,1,.08,1.89.51.51,0,0,1-.23.48,1,1,0,0,1-.48.15,2.7,2.7,0,0,1-.41-.06A.58.58,0,0,1,80.07,63.36Z" class="cls-1"/><path d="M124.06,13.82a.6.6,0,0,0-.34-.32,1.41,1.41,0,0,0-.46-.05,2.57,2.57,0,0,0-.47.08,2,2,0,0,1-.35.08h-1.07l-1.65.07H117a.54.54,0,0,0,0-.18v-.21a3.53,3.53,0,0,1,0-.46c0-.14.11-.25.31-.35,1.13-.1,2.24-.24,3.33-.4s2.17-.34,3.26-.53l3.25-.57c1.09-.19,2.18-.34,3.3-.47a1.38,1.38,0,0,1-.17,1.07,1.59,1.59,0,0,1-.73.52,3.72,3.72,0,0,1-1,.22,6.48,6.48,0,0,0-1.1.14,2.62,2.62,0,0,0-.9.32.85.85,0,0,0-.43.69v.43a2,2,0,0,0,.08.68,2.64,2.64,0,0,1,.08.66c0,.21,0,.35.06.44a9.21,9.21,0,0,0,.58,2.05c.27.66.57,1.31.88,2s.6,1.31.88,2a8.55,8.55,0,0,1,.57,2c.08.52-.17.81-.75.88a1.21,1.21,0,0,1-1-.64,9.76,9.76,0,0,1-1-1.82,22.74,22.74,0,0,1-.86-2.44c-.26-.88-.49-1.74-.69-2.56s-.37-1.53-.5-2.16A8.53,8.53,0,0,0,124.06,13.82Z" class="cls-1"/><path d="M19.33,10.81a50,50,0,0,1,1.88,4.9c.58,1.76,1.08,3.58,1.51,5.49s.82,3.7,1.14,5.45.57,3.33.72,4.77a25.81,25.81,0,0,1,.19,3.51c0,.86-.11,1.37-.33,1.52s-.49-.17-.89-1A33,33,0,0,1,22,31.29c-.63-1.95-1.38-4.61-2.23-8h-.3c-1.5.28-2.92.55-4.27.83s-2.69.57-4,.88c-.09.29-.23.77-.43,1.44s-.41,1.37-.63,2.13l-.66,2.16-.41,1.4c-.07.18-.15.39-.23.64a6.52,6.52,0,0,1-.29.73,1.91,1.91,0,0,1-.39.62.74.74,0,0,1-.57.27.77.77,0,0,1-.83-.49,2.48,2.48,0,0,1-.27-1,12.21,12.21,0,0,1,.2-2c.15-1,.37-2.07.67-3.36S8,24.85,8.46,23.3s.85-3.11,1.33-4.68,1-3.08,1.49-4.55a29.93,29.93,0,0,1,1.58-3.91,15.14,15.14,0,0,1,1.56-2.74c.52-.68,1-1,1.44-1a2.58,2.58,0,0,1,.78.07c.21.06.39.28.53.68A17.74,17.74,0,0,1,19.33,10.81Zm-1,7.33a4.12,4.12,0,0,0,0-.52c-.12-.48-.29-1.1-.52-1.85s-.49-1.55-.77-2.34-.54-1.51-.81-2.15A4.28,4.28,0,0,0,15.45,10c-.33.77-.69,1.65-1.08,2.62s-.74,2-1.08,3a24.48,24.48,0,0,0-.82,3.08,12.47,12.47,0,0,0-.24,2.86h1.86a11,11,0,0,0,2.07-.2,3.48,3.48,0,0,0,1.64-.81,2.18,2.18,0,0,0,.61-1.81c0-.16,0-.34-.06-.61Z" class="cls-1"/><path d="M42.76,6.33c.72,1,1.46,2.13,2.19,3.35s1.42,2.48,2.09,3.8,1.29,2.61,1.82,3.85,1,2.35,1.44,3.39a24.75,24.75,0,0,1,.86,2.51q.26,1,.12,1.17c-.09.13-.35-.08-.77-.63a32.72,32.72,0,0,1-1.82-2.85q-1.2-2-3-5.57l-.2.05c-.86.39-1.69.76-2.45,1.13s-1.55.76-2.31,1.16v1.1a15.82,15.82,0,0,0,.06,1.64c.06.59,0,1.13,0,1.66a7.16,7.16,0,0,1,0,1.07v1.07a1.72,1.72,0,0,1-.11.5.41.41,0,0,1-.31.27.53.53,0,0,1-.57-.23,2,2,0,0,1-.37-.69,9.23,9.23,0,0,1-.3-1.46c-.1-.7-.2-1.55-.3-2.54s-.17-2.07-.25-3.26-.13-2.37-.16-3.58-.05-2.38,0-3.51.06-2.16.14-3.05A10.34,10.34,0,0,1,39,4.47c.17-.56.4-.88.67-1a1.34,1.34,0,0,1,.49,0c.14,0,.3.14.47.42A16.24,16.24,0,0,1,42.76,6.33Zm.93,5.47c-.07-.19-.12-.32-.14-.36-.17-.34-.41-.77-.7-1.29s-.63-1.07-1-1.61-.66-1-1-1.46a3.8,3.8,0,0,0-.72-.87c0,.61-.08,1.29-.11,2.05s0,1.54,0,2.32a23.36,23.36,0,0,0,.15,2.36,11,11,0,0,0,.45,2.11l1.15-.26a6.09,6.09,0,0,0,1.23-.4,1.86,1.86,0,0,0,.84-.8,1.71,1.71,0,0,0,0-1.4Z" class="cls-1"/><path d="M24.29,7c0-.34.09-.55.26-.65a1.14,1.14,0,0,1,.58-.15h.43c0,.51.08,1.12.11,1.85s.09,1.51.14,2.34.12,1.71.2,2.61.19,1.77.33,2.63a25,25,0,0,0,.54,2.44,9.39,9.39,0,0,0,.76,2,1.63,1.63,0,0,0,.19.34,1,1,0,0,0,.18.17.44.44,0,0,0,.2.08h.29A3.54,3.54,0,0,0,30,20.33a14.45,14.45,0,0,0,1.46-.77A16,16,0,0,1,33,18.79a3.66,3.66,0,0,1,1.56-.35H35a1.46,1.46,0,0,1,.51,0,.68.68,0,0,1,.41.25.85.85,0,0,1,.18.59,1.14,1.14,0,0,1-.53.81,9.13,9.13,0,0,1-1.35.87c-.55.29-1.15.58-1.8.85s-1.27.54-1.86.75-1.13.39-1.59.52a4.53,4.53,0,0,1-.89.18,1.6,1.6,0,0,1-1.25-.61,5.55,5.55,0,0,1-.9-1.52,15.08,15.08,0,0,1-.67-2.36,23.64,23.64,0,0,1-.5-2.78c-.12-1-.21-1.91-.28-2.86s-.11-1.83-.13-2.64S24.3,9,24.3,8.35,24.29,7.29,24.29,7Z" class="cls-1"/><path d="M54.21,22.44c0-.3,0-.75-.06-1.34a18.92,18.92,0,0,0-.07-1.93c-.07-.69,0-1.44,0-2.21V12.73a14.37,14.37,0,0,1,.09-1.5,6.43,6.43,0,0,1,.14-.89c.08-.41.16-.86.26-1.32s.2-.89.29-1.29a5.8,5.8,0,0,1,.21-.82.38.38,0,0,1,.21,0h.84a3.15,3.15,0,0,1,1.71.69A8.07,8.07,0,0,1,59.27,9a18.73,18.73,0,0,1,1.28,2c.4.74.81,1.45,1.23,2.14a16.55,16.55,0,0,0,1.31,1.91,5.19,5.19,0,0,0,1.48,1.32,2.56,2.56,0,0,1,.06-.44c0-.2.06-.42.08-.65a2.27,2.27,0,0,1,.08-.65,1.2,1.2,0,0,0,.06-.45c.13-1.21.21-2.4.23-3.57s0-2.33,0-3.49V3.61A34.72,34.72,0,0,1,65.32,0h.34a1.48,1.48,0,0,1,.41.12,1.07,1.07,0,0,1,.37.27.75.75,0,0,1,.18.5c-.1,1.38-.13,2.79-.1,4.2s.07,2.82.11,4.24.06,2.82.06,4.23a41.45,41.45,0,0,1-.22,4.17,6.38,6.38,0,0,1-.1.81,5.55,5.55,0,0,1-.17.81,2.07,2.07,0,0,1-.29.64.55.55,0,0,1-.5.22,2.81,2.81,0,0,1-1.8-.84,9.64,9.64,0,0,1-1.49-1.82c-.47-.73-.91-1.49-1.31-2.26a21,21,0,0,0-1.33-2.36A10.23,10.23,0,0,0,58,11.09a2.83,2.83,0,0,0-1.79-.85Q56,11.8,56,13.36v6a27.1,27.1,0,0,1-.16,3,.93.93,0,0,1-.35.73.9.9,0,0,1-.6.16,1.47,1.47,0,0,1-.46-.11A1.28,1.28,0,0,1,54.21,22.44Z" class="cls-1"/><path d="M150.45,20.89c-.07-.25-.15-.61-.26-1.08s-.22-1-.35-1.55-.25-1.17-.37-1.79-.23-1.22-.34-1.81-.18-1.14-.25-1.63-.11-.91-.13-1.22a4.57,4.57,0,0,1,0-.74,6.76,6.76,0,0,1,.06-1.09c.06-.38.07-.74.1-1.08a5.4,5.4,0,0,1,.08-.69.74.74,0,0,1,.21,0h.63a.67.67,0,0,1,.2,0,3.77,3.77,0,0,1,1.81.39,8.29,8.29,0,0,1,1.66,1A14.67,14.67,0,0,1,155.06,11c.51.55,1,1.09,1.54,1.61a20.76,20.76,0,0,0,1.56,1.4,5.77,5.77,0,0,0,1.68.93V13.17a28.7,28.7,0,0,0-.3-2.91c-.15-.94-.31-1.88-.48-2.83s-.34-1.89-.49-2.85a28.7,28.7,0,0,1-.3-2.94,2,2,0,0,1,.35,0,2.94,2.94,0,0,1,.42,0,1.44,1.44,0,0,1,.4.18.67.67,0,0,1,.26.38,28.21,28.21,0,0,0,.51,3.42c.24,1.14.49,2.28.73,3.42s.47,2.28.68,3.42a25.82,25.82,0,0,1,.38,3.4v.66a5.06,5.06,0,0,1-.05.68,1.54,1.54,0,0,1-.2.54.55.55,0,0,1-.46.23,3.56,3.56,0,0,1-1.91-.49,9.83,9.83,0,0,1-1.74-1.34A18.49,18.49,0,0,1,156,14.38a21.45,21.45,0,0,0-1.67-1.77,9.53,9.53,0,0,0-1.8-1.29,3.44,3.44,0,0,0-1.9-.51,21.68,21.68,0,0,0,.28,2.54c.14.82.3,1.63.46,2.43s.31,1.6.46,2.39a17.88,17.88,0,0,1,.26,2.43.68.68,0,0,1-.23.63,1.16,1.16,0,0,1-.57.18,2,2,0,0,1-.49,0C150.64,21.35,150.54,21.18,150.45,20.89Z" class="cls-1"/><path d="M79.69,25.07a2.37,2.37,0,0,1,1-1.29A9.42,9.42,0,0,1,82.27,23c.6-.25,1.22-.48,1.87-.69s1.21-.44,1.8-.7a5.22,5.22,0,0,0,1.41-.95A2.21,2.21,0,0,0,88,19.21a3,3,0,0,0-.3-1.91A4.63,4.63,0,0,0,86.42,16a9.61,9.61,0,0,0-1.91-1L82.3,14c-.76-.31-1.49-.63-2.2-1a8.21,8.21,0,0,1-1.88-1.25A4.78,4.78,0,0,1,77,10.07a4.53,4.53,0,0,1-.28-2.36,5.6,5.6,0,0,1,.66-2.1,9.2,9.2,0,0,1,1.39-1.77,11,11,0,0,1,4-2.64A12.15,12.15,0,0,1,84.87.56a7.07,7.07,0,0,1,2-.13h.35c.18.09.43.23.73.41l.88.54.73.47c.2.14.3.23.29.25l-.13.81a15.67,15.67,0,0,0-1.6.13c-.6.07-1.34.19-2.07.34a17.05,17.05,0,0,0-2.23.6,10.63,10.63,0,0,0-2.07.92,5.76,5.76,0,0,0-1.56,1.31A3.33,3.33,0,0,0,79.48,8a2.88,2.88,0,0,0,.71,2.4A7.73,7.73,0,0,0,82.44,12a25.91,25.91,0,0,0,3,1.23,22.65,22.65,0,0,1,3,1.29,6.8,6.8,0,0,1,2.23,1.75,3.55,3.55,0,0,1,.72,2.7,4.35,4.35,0,0,1-.7,1.84,10.13,10.13,0,0,1-1.52,1.81,16.52,16.52,0,0,1-2,1.66A16.57,16.57,0,0,1,85,25.61a15.44,15.44,0,0,1-2.2.86,5.39,5.39,0,0,1-1.87.25,2.36,2.36,0,0,1-.54-.12,1.66,1.66,0,0,1-.47-.26.92.92,0,0,1-.27-.49A1.31,1.31,0,0,1,79.69,25.07Z" class="cls-1"/><path d="M113.64,10.77a.52.52,0,0,0-.28-.35,1.41,1.41,0,0,0-.45-.11h-.48a1.15,1.15,0,0,1-.37,0L111,10.23l-1.63-.11-1.7-.1H106.6V9.83a.74.74,0,0,1,0-.21,1.85,1.85,0,0,1,0-.47c0-.13.15-.24.36-.32h3.36c1.1,0,2.2-.09,3.31-.16l3.3-.2c1.11-.06,2.23-.09,3.34-.09a1.4,1.4,0,0,1-.32,1,1.67,1.67,0,0,1-.8.44,4.75,4.75,0,0,1-1.06.09,10.46,10.46,0,0,0-1.12,0,2.52,2.52,0,0,0-.93.21.88.88,0,0,0-.54.64V13a8.81,8.81,0,0,0,.26,2.1c.18.69.37,1.37.58,2.05s.4,1.36.57,2a8.06,8.06,0,0,1,.27,2.07c0,.53-.29.78-.86.78-.35,0-.67-.24-.94-.74a8.79,8.79,0,0,1-.71-1.91,23.85,23.85,0,0,1-.49-2.52c-.13-.9-.23-1.78-.31-2.61s-.23-1.52-.23-2.17Z" class="cls-1"/><path d="M134.2,16.32a6.9,6.9,0,0,1,.12-1.81,8.29,8.29,0,0,1,.56-1.77,7.94,7.94,0,0,1,1-1.62A7.17,7.17,0,0,1,137.2,9.8a5.79,5.79,0,0,1,1.6-.92,6.08,6.08,0,0,1,1.88-.4,3.73,3.73,0,0,1,1.75.28,3.87,3.87,0,0,1,1.29.94,4.26,4.26,0,0,1,.82,1.39,6.16,6.16,0,0,1,.35,1.64,9.16,9.16,0,0,1-.26,2.9,7.61,7.61,0,0,1-1.16,2.6,6.67,6.67,0,0,1-2.07,1.92,6.4,6.4,0,0,1-3,.84,3.28,3.28,0,0,1-1.77-.35,4,4,0,0,1-1.3-1.09,5.56,5.56,0,0,1-.78-1.56A6.82,6.82,0,0,1,134.2,16.32Zm1.56.3a3.46,3.46,0,0,0,.23,1,4.32,4.32,0,0,0,.52.94,2.68,2.68,0,0,0,.78.68,1.77,1.77,0,0,0,1,.24,4.45,4.45,0,0,0,2.17-.63,6,6,0,0,0,1.63-1.47,6.38,6.38,0,0,0,1-1.94,5.91,5.91,0,0,0,.25-2.09,10.54,10.54,0,0,0-.12-1.21,3.72,3.72,0,0,0-.31-1.13,2,2,0,0,0-.68-.8A2.06,2.06,0,0,0,141,10l-.68,0a4.64,4.64,0,0,0-.83.14,2.7,2.7,0,0,0-.72.26.49.49,0,0,0-.29.45.53.53,0,0,0,.08.15l.15.23c.05.08.1.15.14.23a.61.61,0,0,1,.07.14.52.52,0,0,1-.14.19.7.7,0,0,1-.22.2,5.59,5.59,0,0,0-1.46.64,2.64,2.64,0,0,0-.9.92,3.63,3.63,0,0,0-.41,1.32,9.2,9.2,0,0,0,0,1.74Z" class="cls-1"/><path d="M105.42,16.47a21.21,21.21,0,0,1-.13,2.25,15.48,15.48,0,0,1-.42,2.32,9.27,9.27,0,0,1-.79,2.09,4.59,4.59,0,0,1-1.27,1.53,3.13,3.13,0,0,1-1.82.63,3.26,3.26,0,0,1-1.88-.44,5.6,5.6,0,0,1-1.54-1.33,9.49,9.49,0,0,1-1.2-1.94,19.85,19.85,0,0,1-.89-2.25,17,17,0,0,1-.57-2.23,19,19,0,0,1-.25-2,3.84,3.84,0,0,0-.08-.88,8.46,8.46,0,0,1-.11-1.16c0-.41,0-.82,0-1.24a4.27,4.27,0,0,1,.16-1.12,2.16,2.16,0,0,1,.43-.82,1,1,0,0,1,.79-.36,1.22,1.22,0,0,1,.72.17.73.73,0,0,1,.37.66,6.25,6.25,0,0,1,0,1.06,6.51,6.51,0,0,1-.13,1.07c-.06.36-.09.72-.13,1.09a7.62,7.62,0,0,0,0,1.17,10.3,10.3,0,0,0,.17,1.41,16.43,16.43,0,0,0,.35,1.69,15.67,15.67,0,0,0,.56,1.72,7.15,7.15,0,0,0,.81,1.52,4,4,0,0,0,1.08,1.06,2.2,2.2,0,0,0,1.37.37,1.55,1.55,0,0,0,1-.46,4,4,0,0,0,.77-1.07,6.9,6.9,0,0,0,.56-1.45,13.79,13.79,0,0,0,.33-1.55c.08-.54.14-1,.17-1.54s0-.8,0-1.2a2.9,2.9,0,0,0-.12-.6c-.08-.31-.16-.65-.25-1s-.17-.7-.24-1l-.13-.6v-.53a1.17,1.17,0,0,1,.57-.55.86.86,0,0,1,.55,0,1.45,1.45,0,0,1,.5.39,4.75,4.75,0,0,1,.42.58v.52a3.25,3.25,0,0,0,.07.8c.07.29,0,.56.07.83a1.33,1.33,0,0,1,0,.54A7.08,7.08,0,0,1,105.42,16.47Z" class="cls-1"/></svg>