<svg id="Capa_1" data-name="Capa 1" xmlns="http://www.w3.org/2000/svg" viewBox="0 0 180 80"><defs><style>.cls-1{fill:#693575;}.cls-2{fill:#ffffec;}</style></defs><path class="cls-1" d="M17.79,0H162.21C172,0,180,9.56,180,21.35v37.3C180,70.44,172,80,162.21,80H17.79C8,80,0,70.44,0,58.65V21.35C0,9.56,8,0,17.79,0Z"/><path class="cls-2" d="M53.54,46.52A3.8,3.8,0,0,1,52,45.28a3.21,3.21,0,0,1-.58-1.83h1.76A2.34,2.34,0,0,0,53.9,45a2.63,2.63,0,0,0,1.88.61A2.74,2.74,0,0,0,57.65,45a1.93,1.93,0,0,0,.68-1.52,1.72,1.72,0,0,0-.4-1.18,2.64,2.64,0,0,0-1-.69,14.59,14.59,0,0,0-1.62-.51,14.05,14.05,0,0,1-2-.65,3.26,3.26,0,0,1-1.29-1,3,3,0,0,1-.54-1.88A3.3,3.3,0,0,1,52,35.67a3.46,3.46,0,0,1,1.48-1.23A5.1,5.1,0,0,1,55.67,34a4.6,4.6,0,0,1,2.92.89,3.25,3.25,0,0,1,1.28,2.36H58.06A2,2,0,0,0,57.29,36a2.71,2.71,0,0,0-1.78-.55,2.63,2.63,0,0,0-1.69.53,1.83,1.83,0,0,0-.66,1.5,1.58,1.58,0,0,0,.4,1.13,2.5,2.5,0,0,0,1,.66,14.05,14.05,0,0,0,1.61.52,15.63,15.63,0,0,1,2,.68,3.44,3.44,0,0,1,1.31,1,3,3,0,0,1,.54,1.9,3.33,3.33,0,0,1-.49,1.75,3.59,3.59,0,0,1-1.45,1.32,4.82,4.82,0,0,1-2.28.51A5.53,5.53,0,0,1,53.54,46.52Z"/><path class="cls-2" d="M71.47,42.47h-8a3.14,3.14,0,0,0,3.24,3.13,3.1,3.1,0,0,0,1.79-.5,2.66,2.66,0,0,0,1-1.34h1.78a4.3,4.3,0,0,1-1.6,2.34,4.84,4.84,0,0,1-3,.9,5,5,0,0,1-2.54-.64,4.37,4.37,0,0,1-1.75-1.81,5.51,5.51,0,0,1-.64-2.71,5.7,5.7,0,0,1,.62-2.71,4.27,4.27,0,0,1,1.73-1.79,5.19,5.19,0,0,1,2.58-.63,5,5,0,0,1,2.5.62A4.32,4.32,0,0,1,70.94,39a5,5,0,0,1,.59,2.44A8.78,8.78,0,0,1,71.47,42.47Zm-2.07-3a2.79,2.79,0,0,0-1.14-1,3.6,3.6,0,0,0-1.59-.35,3.06,3.06,0,0,0-2.13.8,3.22,3.22,0,0,0-1,2.22h6.29A3,3,0,0,0,69.4,39.5Z"/><path class="cls-2" d="M81.51,37.79A4.23,4.23,0,0,1,82.64,41v5.88H81V41.2a3.24,3.24,0,0,0-.74-2.28,2.67,2.67,0,0,0-2-.79,2.73,2.73,0,0,0-2.08.81,3.34,3.34,0,0,0-.78,2.39v5.51H73.71v-10h1.65v1.42a3.33,3.33,0,0,1,1.34-1.18,4.14,4.14,0,0,1,1.87-.42A4,4,0,0,1,81.51,37.79Z"/><path class="cls-2" d="M85.35,39.14a4.37,4.37,0,0,1,1.72-1.79,4.86,4.86,0,0,1,2.51-.64,4.93,4.93,0,0,1,3,.89,4.19,4.19,0,0,1,1.57,2.47H92.4a2.56,2.56,0,0,0-1-1.43,3,3,0,0,0-1.83-.53,2.93,2.93,0,0,0-2.29,1,4,4,0,0,0-.87,2.76,4.06,4.06,0,0,0,.87,2.78,2.94,2.94,0,0,0,2.29,1,3.08,3.08,0,0,0,1.82-.51,2.54,2.54,0,0,0,1-1.45h1.78a4.36,4.36,0,0,1-1.6,2.44,4.81,4.81,0,0,1-3,.92,4.86,4.86,0,0,1-2.51-.64,4.33,4.33,0,0,1-1.72-1.8,6.23,6.23,0,0,1,0-5.42Z"/><path class="cls-2" d="M96.44,34.93a1.09,1.09,0,0,1-.33-.8A1.13,1.13,0,0,1,97.24,33a1,1,0,0,1,.77.33,1.11,1.11,0,0,1,.32.8,1.13,1.13,0,0,1-.32.8,1,1,0,0,1-.77.32A1.07,1.07,0,0,1,96.44,34.93ZM98,36.87v10H96.38v-10Z"/><path class="cls-2" d="M102.51,33.38V46.84h-1.65V33.38Z"/><path class="cls-2" d="M107,33.38V46.84h-1.65V33.38Z"/><path class="cls-2" d="M111.61,46.36a4.43,4.43,0,0,1-1.78-1.81,5.52,5.52,0,0,1-.65-2.71,5.3,5.3,0,0,1,.67-2.7,4.46,4.46,0,0,1,1.8-1.8,5.54,5.54,0,0,1,5.13,0,4.52,4.52,0,0,1,1.81,1.79,5.39,5.39,0,0,1,.66,2.71,5.22,5.22,0,0,1-.68,2.71,4.64,4.64,0,0,1-1.84,1.81,5.25,5.25,0,0,1-2.58.64A5,5,0,0,1,111.61,46.36Zm4.21-1.23a3.18,3.18,0,0,0,1.26-1.26,4,4,0,0,0,.48-2,4.05,4.05,0,0,0-.47-2,3.17,3.17,0,0,0-1.24-1.25,3.62,3.62,0,0,0-3.31,0,3,3,0,0,0-1.21,1.25,4.16,4.16,0,0,0-.46,2,4.28,4.28,0,0,0,.45,2,2.94,2.94,0,0,0,1.19,1.25,3.38,3.38,0,0,0,1.64.41A3.48,3.48,0,0,0,115.82,45.13Z"/><path class="cls-2" d="M122.91,46.61a3.41,3.41,0,0,1-1.44-1.09,2.94,2.94,0,0,1-.58-1.61h1.71a1.68,1.68,0,0,0,.7,1.22,2.7,2.7,0,0,0,1.64.47,2.43,2.43,0,0,0,1.5-.42,1.28,1.28,0,0,0,.54-1,1,1,0,0,0-.58-1,8.09,8.09,0,0,0-1.8-.62,14.31,14.31,0,0,1-1.81-.59,3.2,3.2,0,0,1-1.2-.89,2.54,2.54,0,0,1,0-3,3.19,3.19,0,0,1,1.3-1,4.58,4.58,0,0,1,1.91-.37,4.06,4.06,0,0,1,2.67.84,3,3,0,0,1,1.09,2.29h-1.66a1.71,1.71,0,0,0-.62-1.26,2.8,2.8,0,0,0-3-.09,1.2,1.2,0,0,0-.53,1,1.1,1.1,0,0,0,.32.81,2.5,2.5,0,0,0,.8.51,13.57,13.57,0,0,0,1.34.43,13.9,13.9,0,0,1,1.75.57,3.17,3.17,0,0,1,1.15.84,2.28,2.28,0,0,1,.5,1.48,2.55,2.55,0,0,1-.45,1.47,3.1,3.1,0,0,1-1.29,1A4.54,4.54,0,0,1,125,47,5.17,5.17,0,0,1,122.91,46.61Z"/></svg>