<svg id="Capa_1" data-name="Capa 1" xmlns="http://www.w3.org/2000/svg" viewBox="0 0 135 50"><defs><style>.cls-1{fill:#ffffec;}.cls-2{fill:#693575;}</style></defs><rect class="cls-1" width="135" height="50" rx="13.34"/><path class="cls-2" d="M41.49,21.47a2.86,2.86,0,0,1-1.2-.95,2.44,2.44,0,0,1-.45-1.41H41.2a1.79,1.79,0,0,0,.57,1.16,2,2,0,0,0,1.45.47,2.05,2.05,0,0,0,1.43-.46,1.47,1.47,0,0,0,.53-1.17,1.38,1.38,0,0,0-.31-.91,1.94,1.94,0,0,0-.77-.53c-.41-.15-.83-.28-1.25-.39a12,12,0,0,1-1.54-.5,2.52,2.52,0,0,1-1-.8,2.34,2.34,0,0,1-.41-1.45,2.45,2.45,0,0,1,.41-1.41,2.64,2.64,0,0,1,1.14-.95,4,4,0,0,1,1.68-.34,3.5,3.5,0,0,1,2.25.69,2.58,2.58,0,0,1,1,1.82H45a1.55,1.55,0,0,0-.59-1A2.11,2.11,0,0,0,43,12.93a2,2,0,0,0-1.3.41,1.41,1.41,0,0,0-.51,1.15,1.2,1.2,0,0,0,.3.87,1.82,1.82,0,0,0,.74.51c.3.12.71.25,1.24.4A10.65,10.65,0,0,1,45,16.8a2.57,2.57,0,0,1,1,.79,2.34,2.34,0,0,1,.42,1.47A2.54,2.54,0,0,1,46,20.4a2.71,2.71,0,0,1-1.12,1,3.78,3.78,0,0,1-1.75.4A4,4,0,0,1,41.49,21.47Z"/><path class="cls-2" d="M49.73,21.35A3.42,3.42,0,0,1,48.36,20a4.33,4.33,0,0,1-.5-2.09,4.2,4.2,0,0,1,.52-2.08,3.44,3.44,0,0,1,1.39-1.39,4.3,4.3,0,0,1,3.95,0,3.48,3.48,0,0,1,1.39,1.38,4.12,4.12,0,0,1,.51,2.09A4,4,0,0,1,55.1,20a3.65,3.65,0,0,1-1.42,1.39,4,4,0,0,1-2,.49A3.91,3.91,0,0,1,49.73,21.35Zm3.25-1a2.53,2.53,0,0,0,1-1,3,3,0,0,0,.37-1.56A3.09,3.09,0,0,0,54,16.3a2.41,2.41,0,0,0-1-1,2.8,2.8,0,0,0-2.55,0,2.25,2.25,0,0,0-.93,1,3.17,3.17,0,0,0-.35,1.57,3.31,3.31,0,0,0,.34,1.58,2.28,2.28,0,0,0,.92,1,2.53,2.53,0,0,0,1.26.31A2.74,2.74,0,0,0,53,20.4Z"/><path class="cls-2" d="M59.72,14.35a3.63,3.63,0,0,1,4.89,1.44,4.22,4.22,0,0,1,.48,2.06,4.41,4.41,0,0,1-.48,2.08,3.56,3.56,0,0,1-1.31,1.41,3.49,3.49,0,0,1-1.86.5,3.4,3.4,0,0,1-1.74-.43,3,3,0,0,1-1.13-1.11v1.42H57.3V11.36h1.27v4.11A3.17,3.17,0,0,1,59.72,14.35Zm3.71,2a2.45,2.45,0,0,0-.94-1A2.62,2.62,0,0,0,61.18,15a2.58,2.58,0,0,0-1.3.34,2.53,2.53,0,0,0-1,1,3.37,3.37,0,0,0,0,3,2.53,2.53,0,0,0,1,1,2.58,2.58,0,0,0,1.3.34,2.61,2.61,0,0,0,1.31-.34,2.51,2.51,0,0,0,.94-1,3.08,3.08,0,0,0,.35-1.54,3,3,0,0,0-.35-1.46Z"/><path class="cls-2" d="M69,14.27a3,3,0,0,1,1.52-.36v1.31h-.34c-1.43,0-2.14.78-2.14,2.33v4.17H66.77V14.05H68v1.24A2.4,2.4,0,0,1,69,14.27Z"/><path class="cls-2" d="M78.94,18.36H72.81a2.4,2.4,0,0,0,2.5,2.4,2.3,2.3,0,0,0,1.37-.38,2,2,0,0,0,.78-1h1.37a3.23,3.23,0,0,1-1.23,1.8,3.69,3.69,0,0,1-2.29.69,3.88,3.88,0,0,1-2-.49A3.48,3.48,0,0,1,72,20a4.21,4.21,0,0,1-.49-2.09A4.39,4.39,0,0,1,72,15.78a3.34,3.34,0,0,1,1.33-1.38,4,4,0,0,1,2-.48,3.84,3.84,0,0,1,1.93.48,3.23,3.23,0,0,1,1.29,1.3A3.88,3.88,0,0,1,79,17.59C79,17.85,79,18.1,78.94,18.36Zm-1.59-2.29a2.12,2.12,0,0,0-.88-.8A2.72,2.72,0,0,0,75.25,15a2.33,2.33,0,0,0-1.65.61,2.47,2.47,0,0,0-.77,1.71h4.84A2.38,2.38,0,0,0,77.35,16.07Z"/><path class="cls-2" d="M85.68,11.36V21.72H84.4V11.36Z"/><path class="cls-2" d="M87.85,15.79A3.5,3.5,0,0,1,91,13.92a3.34,3.34,0,0,1,1.75.43,2.93,2.93,0,0,1,1.11,1.1v-1.4h1.29v7.67H93.87V20.29a2.94,2.94,0,0,1-1.13,1.11,3.32,3.32,0,0,1-1.74.44,3.46,3.46,0,0,1-1.85-.5,3.6,3.6,0,0,1-1.3-1.41,4.41,4.41,0,0,1-.48-2.08A4.22,4.22,0,0,1,87.85,15.79Zm5.67.57a2.53,2.53,0,0,0-1-1,2.46,2.46,0,0,0-1.3-.34A2.42,2.42,0,0,0,89,16.35a3.18,3.18,0,0,0-.34,1.51A3.26,3.26,0,0,0,89,19.39a2.58,2.58,0,0,0,.94,1,2.69,2.69,0,0,0,2.61,0,2.53,2.53,0,0,0,1-1,3.2,3.2,0,0,0,.35-1.52A3.16,3.16,0,0,0,93.52,16.36Z"/><path class="cls-2" d="M49.6,31.15a3.43,3.43,0,0,1,1.72-.43,3.61,3.61,0,0,1,1.87.49,3.52,3.52,0,0,1,1.3,1.38A4.33,4.33,0,0,1,55,34.65a4.49,4.49,0,0,1-.47,2.07,3.46,3.46,0,0,1-3.17,1.92,3.4,3.4,0,0,1-1.74-.43,2.94,2.94,0,0,1-1.13-1.11v1.42H47.18V28.16h1.27v4.11A3.09,3.09,0,0,1,49.6,31.15Zm3.71,2a2.45,2.45,0,0,0-.94-1,2.72,2.72,0,0,0-1.31-.34,2.56,2.56,0,0,0-1.3.35,2.61,2.61,0,0,0-.95,1,3.37,3.37,0,0,0,0,3,2.61,2.61,0,0,0,.95,1,2.58,2.58,0,0,0,1.3.34,2.61,2.61,0,0,0,1.31-.34,2.51,2.51,0,0,0,.94-1,3.31,3.31,0,0,0,.35-1.54,3.07,3.07,0,0,0-.35-1.48Z"/><path class="cls-2" d="M56.64,32.59a3.65,3.65,0,0,1,3.22-1.87,3.34,3.34,0,0,1,1.75.43,3,3,0,0,1,1.1,1.09v-1.4H64v7.68H62.66V37.09a3,3,0,0,1-1.12,1.11,3.26,3.26,0,0,1-1.75.44,3.45,3.45,0,0,1-3.15-1.92,4.77,4.77,0,0,1,0-4.13Zm5.67.57a2.51,2.51,0,0,0-.94-1,2.64,2.64,0,0,0-2.61,0,2.39,2.39,0,0,0-.94,1,3.19,3.19,0,0,0-.35,1.51,3.31,3.31,0,0,0,.35,1.54,2.45,2.45,0,0,0,2.24,1.34,2.61,2.61,0,0,0,1.31-.34,2.51,2.51,0,0,0,.94-1,3.2,3.2,0,0,0,.35-1.52A3,3,0,0,0,62.31,33.16Z"/><path class="cls-2" d="M72.11,31.55A3.28,3.28,0,0,1,73,34v4.53H71.72V34.18a2.49,2.49,0,0,0-.57-1.76,2,2,0,0,0-1.57-.61,2.09,2.09,0,0,0-1.6.63,2.55,2.55,0,0,0-.6,1.83v4.25H66.11V30.84h1.27v1.1a2.44,2.44,0,0,1,1-.91,3.37,3.37,0,0,1,3.7.52Z"/><path class="cls-2" d="M75.07,32.59a3.48,3.48,0,0,1,1.31-1.38,3.71,3.71,0,0,1,3.53-.08,3,3,0,0,1,1.18,1.09V28.16h1.28V38.52H81.09V37.07A3,3,0,0,1,80,38.2a3.32,3.32,0,0,1-1.74.44,3.55,3.55,0,0,1-1.85-.5,3.45,3.45,0,0,1-1.31-1.42,4.82,4.82,0,0,1,0-4.13Zm5.67.57a2.54,2.54,0,0,0-2.26-1.34,2.68,2.68,0,0,0-1.3.34,2.58,2.58,0,0,0-.94,1,3.19,3.19,0,0,0-.35,1.51,3.31,3.31,0,0,0,.35,1.54,2.54,2.54,0,0,0,4.45.1.31.31,0,0,1,0-.1,3.2,3.2,0,0,0,.35-1.52A3,3,0,0,0,80.74,33.16Z"/><path class="cls-2" d="M84.53,32.59a3.48,3.48,0,0,1,1.31-1.38,3.54,3.54,0,0,1,1.85-.49,3.34,3.34,0,0,1,1.75.43,2.91,2.91,0,0,1,1.11,1.09v-1.4h1.29v7.68H90.55V37.09a2.94,2.94,0,0,1-1.13,1.11,3.32,3.32,0,0,1-1.74.44,3.55,3.55,0,0,1-1.85-.5,3.7,3.7,0,0,1-1.3-1.42,4.37,4.37,0,0,1-.48-2.07A4.22,4.22,0,0,1,84.53,32.59Zm5.67.57a2.51,2.51,0,0,0-.94-1,2.64,2.64,0,0,0-2.61,0,2.39,2.39,0,0,0-.94,1,2.92,2.92,0,0,0-.35,1.51,3.08,3.08,0,0,0,.35,1.54A2.45,2.45,0,0,0,88,37.55a2.61,2.61,0,0,0,1.31-.34,2.51,2.51,0,0,0,.94-1,3.2,3.2,0,0,0,.35-1.52A3,3,0,0,0,90.2,33.16Z"/></svg>