<svg xmlns="http://www.w3.org/2000/svg" id="Capa_1" data-name="Capa 1" viewBox="0 0 250 50"><defs><style>.cls-1{fill:#693575}.cls-2{fill:#ffffec}</style></defs><path d="M250,25c0,13.81-9.33,25-20.83,25H20.83C9.33,50,0,38.81,0,25S9.33,0,20.83,0H229.17C240.67,0,250,11.19,250,25Z" class="cls-1"/><path d="M103.57,28.24a2.74,2.74,0,0,1-1.19-.94,2.44,2.44,0,0,1-.44-1.39h1.34a1.78,1.78,0,0,0,.56,1.14,2,2,0,0,0,1.43.47,2.09,2.09,0,0,0,1.42-.45,1.46,1.46,0,0,0,.52-1.16,1.34,1.34,0,0,0-.3-.9,2,2,0,0,0-.76-.52,12.65,12.65,0,0,0-1.24-.39,9.64,9.64,0,0,1-1.52-.5,2.39,2.39,0,0,1-1-.78,2.29,2.29,0,0,1-.4-1.43,2.47,2.47,0,0,1,.4-1.4,2.6,2.6,0,0,1,1.12-.94,4,4,0,0,1,1.67-.33,3.48,3.48,0,0,1,2.22.68,2.51,2.51,0,0,1,1,1.8H107a1.48,1.48,0,0,0-.58-1,2.06,2.06,0,0,0-1.35-.42,1.92,1.92,0,0,0-1.29.41,1.39,1.39,0,0,0-.5,1.14,1.25,1.25,0,0,0,.3.86,1.87,1.87,0,0,0,.73.5,12,12,0,0,0,1.23.4,10.85,10.85,0,0,1,1.53.51,2.62,2.62,0,0,1,1,.79,2.29,2.29,0,0,1,.41,1.45,2.55,2.55,0,0,1-.37,1.33,2.8,2.8,0,0,1-1.11,1,3.74,3.74,0,0,1-1.73.38A4,4,0,0,1,103.57,28.24Z" class="cls-2"/><path d="M112.71,21.22a3.33,3.33,0,0,1,1.72-.44,3.5,3.5,0,0,1,1.84.49,3.45,3.45,0,0,1,1.29,1.36,4.27,4.27,0,0,1,.47,2,4.42,4.42,0,0,1-.47,2,3.54,3.54,0,0,1-1.29,1.39,3.41,3.41,0,0,1-1.84.5,3.25,3.25,0,0,1-1.71-.44,3.06,3.06,0,0,1-1.12-1.08v5h-1.26V20.91h1.26V22.3A3,3,0,0,1,112.71,21.22Zm3.69,2a2.41,2.41,0,0,0-.94-1,2.49,2.49,0,0,0-1.29-.34,2.58,2.58,0,0,0-1.28.34,2.5,2.5,0,0,0-.94,1,3,3,0,0,0-.35,1.48,3,3,0,0,0,.35,1.5,2.5,2.5,0,0,0,.94,1,2.67,2.67,0,0,0,2.57,0,2.5,2.5,0,0,0,.94-1,3.5,3.5,0,0,0,0-3Z" class="cls-2"/><path d="M121.06,28.13a3.58,3.58,0,0,1-1.35-1.38,4.53,4.53,0,0,1,0-4.12,3.5,3.5,0,0,1,1.38-1.37,4.2,4.2,0,0,1,3.9,0,3.54,3.54,0,0,1,1.38,1.36,4.16,4.16,0,0,1,.5,2.06,4,4,0,0,1-.52,2.07,3.64,3.64,0,0,1-1.4,1.38,4.07,4.07,0,0,1-2,.48A4,4,0,0,1,121.06,28.13Zm3.21-.94a2.53,2.53,0,0,0,1-1,3.47,3.47,0,0,0,0-3.1,2.32,2.32,0,0,0-.95-.94,2.64,2.64,0,0,0-2.52,0,2.26,2.26,0,0,0-.92.94,3.23,3.23,0,0,0-.34,1.55,3.41,3.41,0,0,0,.33,1.57,2.23,2.23,0,0,0,.91.94,2.51,2.51,0,0,0,1.24.31A2.69,2.69,0,0,0,124.27,27.19Z" class="cls-2"/><path d="M130.08,21.94v4.47a1.08,1.08,0,0,0,.23.78,1.18,1.18,0,0,0,.82.23h.93v1.07h-1.14a2.25,2.25,0,0,1-1.58-.49,2.07,2.07,0,0,1-.52-1.59V21.94h-1v-1h1V19h1.26v1.91h2v1Z" class="cls-2"/><path d="M133.62,19.43a.82.82,0,0,1-.25-.61.81.81,0,0,1,.25-.61.82.82,0,0,1,.61-.25.79.79,0,0,1,.59.25.84.84,0,0,1,.24.61.85.85,0,0,1-.24.61.82.82,0,0,1-.59.24A.85.85,0,0,1,133.62,19.43Zm1.22,1.48v7.58h-1.26V20.91Z" class="cls-2"/><path d="M140.07,21.94h-1.6v6.55h-1.25V21.94h-1v-1h1v-.54a2.4,2.4,0,0,1,.65-1.86,3.08,3.08,0,0,1,2.11-.59v1a1.72,1.72,0,0,0-1.17.32,1.49,1.49,0,0,0-.34,1.08v.54h1.6Z" class="cls-2"/><path d="M148.06,20.91,143.5,32.06h-1.3l1.49-3.66-3.06-7.49H142l2.38,6.14,2.35-6.14Z" class="cls-2"/></svg>