<?xml version="1.0" encoding="UTF-8"?><svg id="a" xmlns="http://www.w3.org/2000/svg" viewBox="0 0 100 100"><defs><style>.b{fill:#ffffec;}.c{fill:#974ba6;}</style></defs><g><circle class="c" cx="50" cy="50" r="49.02"/><path class="b" d="M50,100C22.43,100,0,77.57,0,50S22.43,0,50,0s50,22.43,50,50-22.43,50-50,50ZM50,1.96C23.51,1.96,1.96,23.51,1.96,50s21.55,48.04,48.04,48.04,48.04-21.55,48.04-48.04S76.49,1.96,50,1.96Z"/></g><path class="b" d="M75.45,44.35c-.5,.05-1,.07-1.51,.08-5.53,0-10.68-2.78-13.71-7.41v25.22c0,10.3-8.35,18.64-18.64,18.64s-18.64-8.35-18.64-18.64,8.35-18.64,18.64-18.64h0c.39,0,.77,.03,1.15,.06v9.19c-.38-.05-.76-.12-1.15-.12-5.25,0-9.51,4.26-9.51,9.51s4.26,9.51,9.51,9.51,9.9-4.14,9.9-9.4l.09-42.84h8.79c.83,7.88,7.18,14.04,15.09,14.62v10.21"/></svg>