<svg xmlns="http://www.w3.org/2000/svg" id="Capa_1" data-name="Capa 1" viewBox="0 0 300 50"><defs><style>.cls-1{fill:#693575}.cls-2{fill:#ffffec}</style></defs><path d="M300,25a25,25,0,0,1-25,25H25A25,25,0,0,1,25,0H275A25,25,0,0,1,300,25Z" class="cls-1"/><path d="M137.71,20.48,134.13,30H132.7l-3.58-9.5h1.32l3,8.19,3-8.19Z" class="cls-2"/><path d="M140.43,29.62a3.33,3.33,0,0,1-1.33-1.35,4.11,4.11,0,0,1-.49-2,4.06,4.06,0,0,1,.5-2,3.34,3.34,0,0,1,1.36-1.35,4.16,4.16,0,0,1,3.84,0,3.41,3.41,0,0,1,1.35,1.34,4.35,4.35,0,0,1,0,4.07,3.51,3.51,0,0,1-1.38,1.35,4,4,0,0,1-1.94.48A3.8,3.8,0,0,1,140.43,29.62Zm3.16-.92a2.36,2.36,0,0,0,.94-.94,3,3,0,0,0,.36-1.53,3.08,3.08,0,0,0-.35-1.52,2.4,2.4,0,0,0-.93-.94,2.61,2.61,0,0,0-1.24-.3,2.58,2.58,0,0,0-1.24.3,2.29,2.29,0,0,0-.91.94,3.08,3.08,0,0,0-.34,1.52,3.28,3.28,0,0,0,.33,1.54,2.19,2.19,0,0,0,.9.93,2.43,2.43,0,0,0,1.22.31A2.64,2.64,0,0,0,143.59,28.7Z" class="cls-2"/><path d="M149,19.9V30h-1.24V19.9Z" class="cls-2"/><path d="M153.92,28.83l2.32-6.32h1.32L154.63,30h-1.44l-2.93-7.47h1.33Z" class="cls-2"/><path d="M165.56,26.71h-6a2.39,2.39,0,0,0,.76,1.72,2.34,2.34,0,0,0,1.66.62,2.26,2.26,0,0,0,1.34-.37,2,2,0,0,0,.76-1h1.34a3.24,3.24,0,0,1-1.2,1.75,3.63,3.63,0,0,1-2.24.67,3.78,3.78,0,0,1-1.9-.48,3.41,3.41,0,0,1-1.31-1.35,4.21,4.21,0,0,1-.48-2,4.25,4.25,0,0,1,.47-2,3.17,3.17,0,0,1,1.3-1.34,3.9,3.9,0,0,1,1.92-.47,3.82,3.82,0,0,1,1.88.46,3.17,3.17,0,0,1,1.26,1.28A3.7,3.7,0,0,1,165.6,26C165.6,26.2,165.58,26.45,165.56,26.71ZM164,24.48a2,2,0,0,0-.85-.77,2.6,2.6,0,0,0-1.19-.27,2.29,2.29,0,0,0-1.6.6,2.47,2.47,0,0,0-.76,1.66h4.72A2.29,2.29,0,0,0,164,24.48Z" class="cls-2"/><path d="M169.4,22.73a3,3,0,0,1,1.48-.35v1.28h-.33c-1.39,0-2.08.75-2.08,2.26V30h-1.24V22.51h1.24v1.22A2.43,2.43,0,0,1,169.4,22.73Z" class="cls-2"/></svg>