<svg id="Capa_1" data-name="Capa 1" xmlns="http://www.w3.org/2000/svg" viewBox="0 0 250 50"><defs><style>.cls-1{fill:#693575;}.cls-2{fill:#ffffec;}</style></defs><path class="cls-1" d="M250,25c0,13.81-9.33,25-20.83,25H20.83C9.33,50,0,38.81,0,25S9.33,0,20.83,0H229.17C240.67,0,250,11.19,250,25Z"/><path class="cls-2" d="M103,20.42l-3.14,6v3.64H98.56V26.42l-3.16-6h1.4l2.38,4.88,2.38-4.88Z"/><path class="cls-2" d="M105.66,29.7a3.47,3.47,0,0,1-1.36-1.38,4.28,4.28,0,0,1-.49-2.07,4,4,0,0,1,.51-2.05,3.5,3.5,0,0,1,1.38-1.37,4.2,4.2,0,0,1,3.9,0A3.45,3.45,0,0,1,111,24.19a4.4,4.4,0,0,1,0,4.13,3.66,3.66,0,0,1-1.41,1.38,4,4,0,0,1-2,.48A3.92,3.92,0,0,1,105.66,29.7Zm3.2-.94a2.4,2.4,0,0,0,1-1,3,3,0,0,0,.37-1.55,3.12,3.12,0,0,0-.36-1.55,2.3,2.3,0,0,0-.94-.94,2.62,2.62,0,0,0-1.26-.32,2.56,2.56,0,0,0-1.26.32,2.2,2.2,0,0,0-.92.94,3.12,3.12,0,0,0-.35,1.55,3.28,3.28,0,0,0,.34,1.57,2.23,2.23,0,0,0,.91.94,2.48,2.48,0,0,0,1.24.31A2.65,2.65,0,0,0,108.86,28.76Z"/><path class="cls-2" d="M119.86,22.48v7.58H118.6V28.94a2.43,2.43,0,0,1-1,.9,3.06,3.06,0,0,1-1.42.33,3.45,3.45,0,0,1-1.59-.37,2.62,2.62,0,0,1-1.11-1.1,3.63,3.63,0,0,1-.41-1.78V22.48h1.24v4.27a2.4,2.4,0,0,0,.57,1.72,2.33,2.33,0,0,0,3.14,0,2.54,2.54,0,0,0,.58-1.81V22.48Z"/><path class="cls-2" d="M127.93,20.42v1H125.3v8.62H124V21.44H121.4v-1Z"/><path class="cls-2" d="M136.2,22.48v7.58h-1.26V28.94a2.43,2.43,0,0,1-1,.9,3.06,3.06,0,0,1-1.42.33,3.45,3.45,0,0,1-1.59-.37,2.69,2.69,0,0,1-1.12-1.1,3.63,3.63,0,0,1-.4-1.78V22.48h1.24v4.27a2.4,2.4,0,0,0,.57,1.72,2,2,0,0,0,1.55.6,2.06,2.06,0,0,0,1.59-.62,2.54,2.54,0,0,0,.58-1.81V22.48Z"/><path class="cls-2" d="M140.72,22.78a3.33,3.33,0,0,1,1.7-.43,3.45,3.45,0,0,1,1.84.49,3.32,3.32,0,0,1,1.29,1.36,4.27,4.27,0,0,1,.47,2,4.42,4.42,0,0,1-.47,2.05,3.47,3.47,0,0,1-1.29,1.39,3.41,3.41,0,0,1-1.84.5,3.33,3.33,0,0,1-1.72-.43,2.91,2.91,0,0,1-1.11-1.09v1.4h-1.26V19.82h1.26v4.07A3,3,0,0,1,140.72,22.78Zm3.67,2a2.35,2.35,0,0,0-.94-1,2.49,2.49,0,0,0-1.29-.34,2.47,2.47,0,0,0-2.22,1.33,3.05,3.05,0,0,0-.35,1.48,3.13,3.13,0,0,0,.35,1.5,2.57,2.57,0,0,0,3.51,1,2.43,2.43,0,0,0,.94-1,3.5,3.5,0,0,0,0-3Z"/><path class="cls-2" d="M154.55,26.74H148.5A2.37,2.37,0,0,0,151,29.12a2.35,2.35,0,0,0,1.36-.38,2.05,2.05,0,0,0,.77-1h1.36a3.31,3.31,0,0,1-1.22,1.78,3.73,3.73,0,0,1-2.27.68A3.86,3.86,0,0,1,149,29.7a3.49,3.49,0,0,1-1.34-1.38,4.28,4.28,0,0,1-.48-2.07,4.38,4.38,0,0,1,.47-2.06A3.27,3.27,0,0,1,149,22.83a3.93,3.93,0,0,1,2-.48,3.86,3.86,0,0,1,1.91.47,3.33,3.33,0,0,1,1.28,1.3A3.77,3.77,0,0,1,154.6,26,6.91,6.91,0,0,1,154.55,26.74ZM153,24.47a2.06,2.06,0,0,0-.87-.78,2.66,2.66,0,0,0-1.21-.27,2.3,2.3,0,0,0-1.62.61,2.42,2.42,0,0,0-.77,1.68h4.79A2.36,2.36,0,0,0,153,24.47Z"/></svg>