<svg xmlns="http://www.w3.org/2000/svg" id="Capa_1" data-name="Capa 1" viewBox="0 0 180 80"><defs><style>.cls-1{fill:#693575}.cls-2{fill:#ffffec}</style></defs><path d="M17.79,0H162.21C172,0,180,9.56,180,21.35v37.3C180,70.44,172,80,162.21,80H17.79C8,80,0,70.44,0,58.65V21.35C0,9.56,8,0,17.79,0Z" class="cls-1"/><path d="M59,45.52H53.49l-1,2.82H50.73l4.58-12.59h1.91l4.55,12.59H60Zm-.47-1.34-2.29-6.4L54,44.18ZM58,32.93,54.17,35V33.77L58,31.5Z" class="cls-2"/><path d="M65.43,34.9V48.34H63.77V34.9Z" class="cls-2"/><path d="M71.38,38.78a4.49,4.49,0,0,1,2.24-.56,4.57,4.57,0,0,1,2.41.64,4.46,4.46,0,0,1,1.69,1.78,5.64,5.64,0,0,1,.62,2.68A5.74,5.74,0,0,1,77.72,46a4.51,4.51,0,0,1-4.1,2.49,4.46,4.46,0,0,1-2.26-.56,3.91,3.91,0,0,1-1.47-1.44v1.84H68.24V34.9h1.65v5.34A4,4,0,0,1,71.38,38.78Zm4.82,2.58A3.2,3.2,0,0,0,75,40.09a3.39,3.39,0,0,0-1.7-.44,3.26,3.26,0,0,0-2.91,1.74,4,4,0,0,0-.47,2,4,4,0,0,0,.47,2,3.19,3.19,0,0,0,1.23,1.29,3.4,3.4,0,0,0,3.38,0,3.19,3.19,0,0,0,1.23-1.29,4.15,4.15,0,0,0,.45-2A4.08,4.08,0,0,0,76.2,41.36Z" class="cls-2"/><path d="M89.35,38.38v10H87.69V46.87a3.19,3.19,0,0,1-1.31,1.18,4.05,4.05,0,0,1-1.87.43A4.43,4.43,0,0,1,82.43,48,3.51,3.51,0,0,1,81,46.56a4.89,4.89,0,0,1-.53-2.35V38.38h1.63V44a3.16,3.16,0,0,0,.75,2.26,2.67,2.67,0,0,0,2,.79,2.75,2.75,0,0,0,2.09-.82,3.37,3.37,0,0,0,.76-2.38V38.38Z" class="cls-2"/><path d="M106.18,38.68a3.42,3.42,0,0,1,1.44,1.45,4.82,4.82,0,0,1,.52,2.34v5.87h-1.63V42.71a3.21,3.21,0,0,0-.74-2.28,2.56,2.56,0,0,0-2-.79,2.67,2.67,0,0,0-2.06.82,3.4,3.4,0,0,0-.76,2.39v5.49H99.33V42.71a3.2,3.2,0,0,0-.73-2.28,2.57,2.57,0,0,0-2-.79,2.65,2.65,0,0,0-2,.82,3.4,3.4,0,0,0-.76,2.39v5.49H92.14v-10H93.8v1.44a3.23,3.23,0,0,1,1.31-1.2,4,4,0,0,1,1.83-.42,4.35,4.35,0,0,1,2.21.56,3.45,3.45,0,0,1,1.44,1.66A3.31,3.31,0,0,1,102,38.78a4.11,4.11,0,0,1,2.14-.58A4.33,4.33,0,0,1,106.18,38.68Z" class="cls-2"/><path d="M119.88,44h-8a3.2,3.2,0,0,0,1,2.29,3.16,3.16,0,0,0,2.22.83,3.05,3.05,0,0,0,1.79-.5,2.62,2.62,0,0,0,1-1.33h1.78a4.26,4.26,0,0,1-1.6,2.33,4.82,4.82,0,0,1-3,.9,5,5,0,0,1-2.53-.64,4.46,4.46,0,0,1-1.75-1.8,5.55,5.55,0,0,1-.64-2.72,5.73,5.73,0,0,1,.62-2.71,4.3,4.3,0,0,1,1.73-1.78,5.18,5.18,0,0,1,2.57-.63,5,5,0,0,1,2.51.62,4.17,4.17,0,0,1,1.68,1.7,5,5,0,0,1,.59,2.44C119.93,43.29,119.91,43.63,119.88,44Zm-2.07-3a2.73,2.73,0,0,0-1.14-1,3.63,3.63,0,0,0-1.59-.35,3,3,0,0,0-2.13.8,3.21,3.21,0,0,0-1,2.21h6.28A3,3,0,0,0,117.81,41Z" class="cls-2"/><path d="M123.58,48.11A3.44,3.44,0,0,1,122.15,47a2.87,2.87,0,0,1-.58-1.61h1.7a1.72,1.72,0,0,0,.7,1.22,2.71,2.71,0,0,0,1.65.47,2.4,2.4,0,0,0,1.49-.42,1.28,1.28,0,0,0,.54-1,1,1,0,0,0-.58-1,8.55,8.55,0,0,0-1.8-.63,12.85,12.85,0,0,1-1.81-.59,3.14,3.14,0,0,1-1.19-.89,2.28,2.28,0,0,1-.5-1.55,2.36,2.36,0,0,1,.45-1.4,3.09,3.09,0,0,1,1.29-1,4.62,4.62,0,0,1,1.91-.37,4.06,4.06,0,0,1,2.67.84,3,3,0,0,1,1.09,2.28h-1.66a1.69,1.69,0,0,0-.62-1.25,2.78,2.78,0,0,0-3-.09,1.16,1.16,0,0,0-.53,1,1.1,1.1,0,0,0,.32.81,2.39,2.39,0,0,0,.8.51,13.66,13.66,0,0,0,1.33.42,17.29,17.29,0,0,1,1.75.57,3.08,3.08,0,0,1,1.15.85,2.23,2.23,0,0,1,.5,1.47,2.45,2.45,0,0,1-.46,1.47,3,3,0,0,1-1.28,1,4.52,4.52,0,0,1-1.89.37A5.18,5.18,0,0,1,123.58,48.11Z" class="cls-2"/></svg>